<svg width="244" height="127" viewBox="0 0 244 127" fill="none" xmlns="http://www.w3.org/2000/svg">
<path d="M50.0781 59.8281C49.8906 60.0469 49.4688 60.8594 48.8125 62.2656C48.1562 63.6719 47.3594 65.4844 46.4219 67.7031C45.5156 69.9219 44.5312 72.4844 43.4688 75.3906C42.4062 78.2969 41.3594 81.375 40.3281 84.625C39.2969 87.8438 38.3438 91.1562 37.4688 94.5625C36.5938 97.9688 35.8906 101.281 35.3594 104.5C34.5156 104.75 33.5469 105 32.4531 105.25C31.3906 105.5 30.3281 105.734 29.2656 105.953C28.2031 106.172 27.2344 106.344 26.3594 106.469C25.4844 106.625 24.8438 106.703 24.4375 106.703C25 104.297 25.5469 102 26.0781 99.8125C26.6406 97.625 27.25 95.4844 27.9062 93.3906C28.5625 91.3281 29.2812 89.2812 30.0625 87.25C30.875 85.2188 31.8125 83.125 32.875 80.9688C31.6875 82.5 30.4219 83.9844 29.0781 85.4219C27.7656 86.8594 26.4062 88.1406 25 89.2656C23.625 90.3906 22.2188 91.2812 20.7812 91.9375C19.375 92.625 17.9688 92.9688 16.5625 92.9688C15.5938 92.9688 14.5 92.7031 13.2812 92.1719C12.0938 91.6406 10.8906 90.9062 9.67188 89.9688C8.45312 89.0625 7.26562 87.9688 6.10938 86.6875C4.95312 85.4375 3.92188 84.0781 3.01562 82.6094C2.14062 81.1406 1.4375 79.5938 0.90625 77.9688C0.34375 76.3438 0.0625 74.7188 0.0625 73.0938C0.0625 70.4062 0.4375 67.4688 1.1875 64.2812C1.9375 61.0938 2.98438 57.8125 4.32812 54.4375C5.67188 51.0625 7.29688 47.6719 9.20312 44.2656C11.1094 40.8281 13.2031 37.5312 15.4844 34.375C17.7656 31.2188 20.2031 28.2812 22.7969 25.5625C25.4219 22.8125 28.1406 20.4219 30.9531 18.3906C33.7656 16.3594 36.625 14.7656 39.5312 13.6094C42.4375 12.4219 45.3438 11.8281 48.25 11.8281C49.3438 11.8281 50.4062 12.0781 51.4375 12.5781C52.5 13.0469 53.4844 13.6562 54.3906 14.4062C55.3281 15.125 56.1719 15.9219 56.9219 16.7969C57.7031 17.6719 58.3594 18.4844 58.8906 19.2344C59.5156 20.1406 60.0781 21.1875 60.5781 22.375C61.1094 23.5625 61.375 24.75 61.375 25.9375C61.375 27.9375 61.0625 30.0469 60.4375 32.2656C59.8438 34.4844 59.0156 36.6875 57.9531 38.875C56.8906 41.0625 55.6406 43.1875 54.2031 45.25C52.7656 47.2812 51.2188 49.1094 49.5625 50.7344L41.3125 43.0469C42.25 42.0781 43.375 40.8281 44.6875 39.2969C46 37.7656 47.25 36.0469 48.4375 34.1406C49.625 32.2031 50.6406 30.1562 51.4844 28C52.3281 25.8125 52.75 23.5938 52.75 21.3438C52.75 20.9688 52.7344 20.5469 52.7031 20.0781C52.6719 19.6094 52.5625 19.1719 52.375 18.7656C52.2188 18.3594 51.9531 18.0156 51.5781 17.7344C51.2344 17.4531 50.7344 17.3125 50.0781 17.3125C48.3281 17.3125 46.4062 17.9688 44.3125 19.2812C42.25 20.5938 40.1094 22.375 37.8906 24.625C35.7031 26.8437 33.4844 29.4531 31.2344 32.4531C29.0156 35.4219 26.875 38.5781 24.8125 41.9219C22.75 45.2656 20.8125 48.7031 19 52.2344C17.2188 55.7344 15.6562 59.1406 14.3125 62.4531C13 65.7656 11.9531 68.875 11.1719 71.7812C10.4219 74.6875 10.0469 77.2031 10.0469 79.3281C10.0469 81.2969 10.2812 82.7031 10.75 83.5469C11.25 84.3906 11.9375 84.8125 12.8125 84.8125C13.875 84.8125 15.0781 84.4688 16.4219 83.7812C17.7656 83.0625 19.1562 82.1406 20.5938 81.0156C22.0625 79.8594 23.5156 78.5781 24.9531 77.1719C26.4219 75.7344 27.7812 74.2969 29.0312 72.8594C30.3125 71.3906 31.4531 69.9844 32.4531 68.6406C33.4844 67.2969 34.2969 66.1562 34.8906 65.2188C35.4531 64.3125 35.9375 63.375 36.3438 62.4062C36.75 61.4375 37.2188 60.4531 37.75 59.4531C38.9375 59.4531 40.0312 59.4688 41.0312 59.5C42.0625 59.5312 43.0625 59.5781 44.0312 59.6406C45.0312 59.6719 46.0156 59.7031 46.9844 59.7344C47.9531 59.7656 48.9844 59.7969 50.0781 59.8281ZM87.8594 73.4688C84.9844 76.2812 82.2656 78.6406 79.7031 80.5469C77.1719 82.4531 74.75 83.9844 72.4375 85.1406C70.125 86.2969 67.9062 87.125 65.7812 87.625C63.6875 88.125 61.6406 88.375 59.6406 88.375C58.7969 88.375 57.8594 88.0625 56.8281 87.4375C55.7969 86.8125 54.8438 86.0469 53.9688 85.1406C53.0625 84.2656 52.3125 83.3438 51.7188 82.375C51.125 81.4062 50.8281 80.5781 50.8281 79.8906C50.8281 77.3281 51.1875 74.9844 51.9062 72.8594C52.5938 70.7031 53.5156 68.7656 54.6719 67.0469C55.8281 65.3281 57.1406 63.8125 58.6094 62.5C60.1094 61.1875 61.6562 60.0938 63.25 59.2188C64.875 58.3438 66.4844 57.6875 68.0781 57.25C69.6719 56.8125 71.1406 56.5938 72.4844 56.5938C73.4531 56.5938 74.4062 56.875 75.3438 57.4375C76.3125 58 77.1875 58.6875 77.9688 59.5C78.75 60.3125 79.375 61.1719 79.8438 62.0781C80.3438 62.9531 80.5938 63.7188 80.5938 64.375C80.5938 65.4375 80.1406 66.5312 79.2344 67.6562C78.3594 68.75 77.1094 69.875 75.4844 71.0312C73.8594 72.1875 71.9062 73.375 69.625 74.5938C67.3438 75.7812 64.8281 76.9844 62.0781 78.2031C61.9844 78.9531 61.9375 79.6875 61.9375 80.4062C61.9375 81.375 62.1406 82.0312 62.5469 82.375C62.9844 82.7188 63.7812 82.8906 64.9375 82.8906C67 82.8906 68.9375 82.5469 70.75 81.8594C72.5938 81.1719 74.3594 80.2812 76.0469 79.1875C77.7344 78.0938 79.3594 76.8438 80.9219 75.4375C82.4844 74.0312 84.0312 72.6094 85.5625 71.1719L87.8594 73.4688ZM71.3594 61.75C70.7344 61.75 70.0469 62.0938 69.2969 62.7812C68.5469 63.4375 67.7969 64.3125 67.0469 65.4062C66.2969 66.5 65.5781 67.7656 64.8906 69.2031C64.2031 70.6094 63.6094 72.0781 63.1094 73.6094C64.2656 72.8594 65.3906 72.0625 66.4844 71.2188C67.6094 70.375 68.6094 69.5 69.4844 68.5938C70.3594 67.6562 71.0625 66.7031 71.5938 65.7344C72.125 64.7656 72.3906 63.7969 72.3906 62.8281C72.3906 62.5469 72.2969 62.2969 72.1094 62.0781C71.9531 61.8594 71.7031 61.75 71.3594 61.75ZM98.875 62.3594C98.5 63.3594 98.125 64.375 97.75 65.4062C97.375 66.4375 97 67.5 96.625 68.5938C98.5938 66.3438 100.281 64.5156 101.688 63.1094C103.125 61.6719 104.328 60.5469 105.297 59.7344C106.297 58.9219 107.094 58.375 107.688 58.0938C108.312 57.7812 108.797 57.625 109.141 57.625C109.547 57.625 110.156 57.8281 110.969 58.2344C111.781 58.6406 112.594 59.1406 113.406 59.7344C114.25 60.3281 114.969 60.9375 115.562 61.5625C116.188 62.1875 116.5 62.7344 116.5 63.2031C116.5 63.2969 116.484 63.4219 116.453 63.5781C116.422 63.7031 116.375 63.875 116.312 64.0938C116.062 64.875 115.734 65.7969 115.328 66.8594C114.953 67.9219 114.547 69.0312 114.109 70.1875C113.672 71.3125 113.234 72.4531 112.797 73.6094C112.359 74.7344 111.969 75.7969 111.625 76.7969C111.281 77.7969 111 78.6719 110.781 79.4219C110.562 80.1719 110.453 80.7188 110.453 81.0625C110.453 81.25 110.547 81.3438 110.734 81.3438C111.078 81.3438 111.594 81.1406 112.281 80.7344C112.969 80.3281 113.75 79.7969 114.625 79.1406C115.531 78.4844 116.469 77.7656 117.438 76.9844C118.406 76.2031 119.328 75.4375 120.203 74.6875C121.109 73.9062 121.922 73.2031 122.641 72.5781C123.359 71.9531 123.906 71.4844 124.281 71.1719C124.594 71.4531 124.938 71.8125 125.312 72.25C125.688 72.6875 126.047 73.0938 126.391 73.4688C125.703 74.1562 124.844 75 123.812 76C122.781 76.9688 121.656 77.9688 120.438 79C119.25 80.0312 118 81.0625 116.688 82.0938C115.406 83.125 114.156 84.0469 112.938 84.8594C111.719 85.6719 110.578 86.3281 109.516 86.8281C108.453 87.3281 107.562 87.5781 106.844 87.5781C106.375 87.5781 105.781 87.4062 105.062 87.0625C104.344 86.75 103.641 86.3438 102.953 85.8438C102.297 85.375 101.734 84.8438 101.266 84.25C100.797 83.6562 100.562 83.0781 100.562 82.5156C100.844 81.2344 101.219 79.7812 101.688 78.1562C102.188 76.5312 102.719 74.875 103.281 73.1875C103.844 71.4688 104.422 69.7812 105.016 68.125C105.641 66.4375 106.234 64.8906 106.797 63.4844L106.703 63.5781C106.109 64.2969 105.25 65.25 104.125 66.4375C103.031 67.5938 101.781 69.0938 100.375 70.9375C98.9688 72.75 97.4844 74.9531 95.9219 77.5469C94.3594 80.1094 92.8281 83.1562 91.3281 86.6875C91.1406 87.125 90.9688 87.4688 90.8125 87.7188C90.6562 87.9688 90.3594 88.0938 89.9219 88.0938C89.3906 88.0938 88.7812 87.9375 88.0938 87.625C87.4375 87.3438 86.7656 86.9531 86.0781 86.4531C85.3594 85.9844 84.6562 85.4531 83.9688 84.8594C83.25 84.2656 82.6094 83.6719 82.0469 83.0781C82.0469 82.8906 82.1406 82.3594 82.3281 81.4844C82.4844 80.6094 82.7188 79.5156 83.0312 78.2031C83.3438 76.8594 83.7344 75.3438 84.2031 73.6562C84.6719 71.9375 85.2031 70.1406 85.7969 68.2656C86.3906 66.3906 87.0469 64.4844 87.7656 62.5469C88.4531 60.5781 89.2031 58.6875 90.0156 56.875C91.3281 57.5 92.7812 58.2656 94.375 59.1719C96 60.0781 97.5 61.1406 98.875 62.3594ZM156.766 73.4688C153.891 76.2812 151.172 78.6406 148.609 80.5469C146.078 82.4531 143.656 83.9844 141.344 85.1406C139.031 86.2969 136.812 87.125 134.688 87.625C132.594 88.125 130.547 88.375 128.547 88.375C127.703 88.375 126.766 88.0625 125.734 87.4375C124.703 86.8125 123.75 86.0469 122.875 85.1406C121.969 84.2656 121.219 83.3438 120.625 82.375C120.031 81.4062 119.734 80.5781 119.734 79.8906C119.734 77.3281 120.094 74.9844 120.812 72.8594C121.5 70.7031 122.422 68.7656 123.578 67.0469C124.734 65.3281 126.047 63.8125 127.516 62.5C129.016 61.1875 130.562 60.0938 132.156 59.2188C133.781 58.3438 135.391 57.6875 136.984 57.25C138.578 56.8125 140.047 56.5938 141.391 56.5938C142.359 56.5938 143.312 56.875 144.25 57.4375C145.219 58 146.094 58.6875 146.875 59.5C147.656 60.3125 148.281 61.1719 148.75 62.0781C149.25 62.9531 149.5 63.7188 149.5 64.375C149.5 65.4375 149.047 66.5312 148.141 67.6562C147.266 68.75 146.016 69.875 144.391 71.0312C142.766 72.1875 140.812 73.375 138.531 74.5938C136.25 75.7812 133.734 76.9844 130.984 78.2031C130.891 78.9531 130.844 79.6875 130.844 80.4062C130.844 81.375 131.047 82.0312 131.453 82.375C131.891 82.7188 132.688 82.8906 133.844 82.8906C135.906 82.8906 137.844 82.5469 139.656 81.8594C141.5 81.1719 143.266 80.2812 144.953 79.1875C146.641 78.0938 148.266 76.8438 149.828 75.4375C151.391 74.0312 152.938 72.6094 154.469 71.1719L156.766 73.4688ZM140.266 61.75C139.641 61.75 138.953 62.0938 138.203 62.7812C137.453 63.4375 136.703 64.3125 135.953 65.4062C135.203 66.5 134.484 67.7656 133.797 69.2031C133.109 70.6094 132.516 72.0781 132.016 73.6094C133.172 72.8594 134.297 72.0625 135.391 71.2188C136.516 70.375 137.516 69.5 138.391 68.5938C139.266 67.6562 139.969 66.7031 140.5 65.7344C141.031 64.7656 141.297 63.7969 141.297 62.8281C141.297 62.5469 141.203 62.2969 141.016 62.0781C140.859 61.8594 140.609 61.75 140.266 61.75ZM153.625 72.0625C154.344 71.375 155.172 70.5938 156.109 69.7188C157.016 68.8438 157.922 67.8906 158.828 66.8594C159.766 65.8281 160.625 64.7188 161.406 63.5312C162.219 62.3438 162.859 61.0625 163.328 59.6875C163.453 58.9688 163.641 58.2188 163.891 57.4375C164.172 56.625 164.469 55.8906 164.781 55.2344C165.125 54.5781 165.453 54.0312 165.766 53.5938C166.078 53.1562 166.359 52.9375 166.609 52.9375C166.984 53.1562 167.547 53.5781 168.297 54.2031C169.047 54.7969 169.797 55.4375 170.547 56.125C171.297 56.8125 171.953 57.4531 172.516 58.0469C173.109 58.6094 173.406 58.9531 173.406 59.0781C173.031 60.5156 172.844 61.8125 172.844 62.9688C172.875 64.125 172.969 65.2656 173.125 66.3906C173.312 67.5156 173.5 68.7188 173.688 70C173.906 71.25 174.016 72.7031 174.016 74.3594C174.016 75.3594 173.844 76.5156 173.5 77.8281C173.188 79.1094 172.625 80.2656 171.812 81.2969C173.406 80.3594 174.984 79.3125 176.547 78.1562C178.109 76.9688 179.5 75.8594 180.719 74.8281C182.156 73.6094 183.531 72.3906 184.844 71.1719L186.953 73.4688C185.922 74.4375 184.797 75.4688 183.578 76.5625C182.391 77.6562 181.141 78.7344 179.828 79.7969C178.547 80.8594 177.234 81.875 175.891 82.8438C174.547 83.8125 173.219 84.6719 171.906 85.4219C170.594 86.1719 169.328 86.7656 168.109 87.2031C166.891 87.6406 165.75 87.8594 164.688 87.8594C163.781 87.8594 162.781 87.6406 161.688 87.2031C160.594 86.7656 159.562 86.2344 158.594 85.6094C157.625 84.9844 156.781 84.3281 156.062 83.6406C155.344 82.9531 154.922 82.375 154.797 81.9062C154.797 81.8438 154.859 81.7188 154.984 81.5312C155.109 81.3125 155.266 81.0938 155.453 80.875C155.609 80.6562 155.781 80.4688 155.969 80.3125C156.125 80.125 156.25 80.0312 156.344 80.0312C156.531 80.0312 156.906 80.1719 157.469 80.4531C158.031 80.7344 158.969 80.875 160.281 80.875C161 80.875 161.609 80.6875 162.109 80.3125C162.641 79.9375 163.078 79.4375 163.422 78.8125C163.766 78.1875 164.016 77.4688 164.172 76.6562C164.328 75.8438 164.406 74.9844 164.406 74.0781C164.406 72.7656 164.344 71.5 164.219 70.2812C164.094 69.0312 163.953 67.8281 163.797 66.6719C163.266 67.2969 162.656 67.9531 161.969 68.6406C161.281 69.3281 160.578 70.0156 159.859 70.7031C159.172 71.3594 158.469 72.0156 157.75 72.6719C157.062 73.2969 156.438 73.8594 155.875 74.3594L153.625 72.0625ZM187.844 87.5781C187.375 87.5781 186.781 87.4062 186.062 87.0625C185.344 86.75 184.656 86.3438 184 85.8438C183.344 85.375 182.781 84.8438 182.312 84.25C181.844 83.6562 181.609 83.0781 181.609 82.5156C181.922 81.1406 182.344 79.5625 182.875 77.7812C183.406 76 183.984 74.1875 184.609 72.3438C185.203 70.5 185.844 68.7031 186.531 66.9531C187.188 65.1719 187.781 63.5938 188.312 62.2188C188.875 60.8438 189.359 59.7344 189.766 58.8906C190.172 58.0469 190.438 57.625 190.562 57.625C190.75 57.625 191.219 57.8281 191.969 58.2344C192.719 58.6406 193.5 59.1406 194.312 59.7344C195.156 60.2969 195.906 60.9062 196.562 61.5625C197.219 62.1875 197.547 62.7344 197.547 63.2031C197.547 63.2969 197.531 63.4219 197.5 63.5781C197.469 63.7031 197.422 63.875 197.359 64.0938C197.109 64.875 196.781 65.7969 196.375 66.8594C196 67.9219 195.594 69.0312 195.156 70.1875C194.719 71.3125 194.281 72.4531 193.844 73.6094C193.406 74.7344 193.016 75.7969 192.672 76.7969C192.328 77.7969 192.047 78.6719 191.828 79.4219C191.609 80.1719 191.5 80.7188 191.5 81.0625C191.5 81.25 191.594 81.3438 191.781 81.3438C192.125 81.3438 192.641 81.1406 193.328 80.7344C194.016 80.3281 194.797 79.7969 195.672 79.1406C196.578 78.4844 197.516 77.7656 198.484 76.9844C199.453 76.2031 200.375 75.4375 201.25 74.6875C202.156 73.9062 202.969 73.2031 203.688 72.5781C204.406 71.9531 204.953 71.4844 205.328 71.1719C205.609 71.4531 205.938 71.8125 206.312 72.25C206.719 72.6875 207.094 73.0938 207.438 73.4688C206.75 74.1562 205.891 75 204.859 76C203.828 76.9688 202.703 77.9688 201.484 79C200.297 80.0312 199.047 81.0625 197.734 82.0938C196.453 83.125 195.203 84.0469 193.984 84.8594C192.766 85.6719 191.625 86.3281 190.562 86.8281C189.5 87.3281 188.594 87.5781 187.844 87.5781ZM206.406 43.3281C206.375 43.4531 206.25 43.7656 206.031 44.2656C205.844 44.7344 205.609 45.2969 205.328 45.9531C205.047 46.5781 204.719 47.25 204.344 47.9688C204 48.6562 203.656 49.2969 203.312 49.8906C202.969 50.4844 202.641 50.9844 202.328 51.3906C202.016 51.7656 201.766 51.9531 201.578 51.9531C201.016 51.9219 200.328 51.75 199.516 51.4375C198.734 51.125 197.969 50.7812 197.219 50.4062C196.5 50 195.875 49.6094 195.344 49.2344C194.844 48.8594 194.594 48.5938 194.594 48.4375C194.594 47.7812 194.781 46.9375 195.156 45.9062C195.531 44.8438 195.969 43.8281 196.469 42.8594C196.969 41.8594 197.469 41 197.969 40.2812C198.5 39.5625 198.906 39.2031 199.188 39.2031C199.75 39.2031 200.438 39.3906 201.25 39.7656C202.062 40.1094 202.844 40.5156 203.594 40.9844C204.375 41.4531 205.031 41.9219 205.562 42.3906C206.125 42.8281 206.406 43.1406 206.406 43.3281ZM203.969 72.0625C204.688 71.375 205.516 70.5938 206.453 69.7188C207.359 68.8438 208.266 67.8906 209.172 66.8594C210.109 65.8281 210.969 64.7188 211.75 63.5312C212.562 62.3438 213.203 61.0625 213.672 59.6875C213.797 58.9688 213.984 58.2188 214.234 57.4375C214.516 56.625 214.812 55.8906 215.125 55.2344C215.469 54.5781 215.797 54.0312 216.109 53.5938C216.422 53.1562 216.703 52.9375 216.953 52.9375C217.328 53.1562 217.891 53.5781 218.641 54.2031C219.391 54.7969 220.141 55.4375 220.891 56.125C221.641 56.8125 222.297 57.4531 222.859 58.0469C223.453 58.6094 223.75 58.9531 223.75 59.0781C223.375 60.5156 223.188 61.8125 223.188 62.9688C223.219 64.125 223.312 65.2656 223.469 66.3906C223.656 67.5156 223.844 68.7188 224.031 70C224.25 71.25 224.359 72.7031 224.359 74.3594C224.359 75.3594 224.188 76.5156 223.844 77.8281C223.531 79.1094 222.969 80.2656 222.156 81.2969C223.75 80.3594 225.328 79.3125 226.891 78.1562C228.453 76.9688 229.844 75.8594 231.062 74.8281C232.5 73.6094 233.875 72.3906 235.188 71.1719L237.297 73.4688C236.266 74.4375 235.141 75.4688 233.922 76.5625C232.734 77.6562 231.484 78.7344 230.172 79.7969C228.891 80.8594 227.578 81.875 226.234 82.8438C224.891 83.8125 223.562 84.6719 222.25 85.4219C220.938 86.1719 219.672 86.7656 218.453 87.2031C217.234 87.6406 216.094 87.8594 215.031 87.8594C214.125 87.8594 213.125 87.6406 212.031 87.2031C210.938 86.7656 209.906 86.2344 208.938 85.6094C207.969 84.9844 207.125 84.3281 206.406 83.6406C205.688 82.9531 205.266 82.375 205.141 81.9062C205.141 81.8438 205.203 81.7188 205.328 81.5312C205.453 81.3125 205.609 81.0938 205.797 80.875C205.953 80.6562 206.125 80.4688 206.312 80.3125C206.469 80.125 206.594 80.0312 206.688 80.0312C206.875 80.0312 207.25 80.1719 207.812 80.4531C208.375 80.7344 209.312 80.875 210.625 80.875C211.344 80.875 211.953 80.6875 212.453 80.3125C212.984 79.9375 213.422 79.4375 213.766 78.8125C214.109 78.1875 214.359 77.4688 214.516 76.6562C214.672 75.8438 214.75 74.9844 214.75 74.0781C214.75 72.7656 214.688 71.5 214.562 70.2812C214.438 69.0312 214.297 67.8281 214.141 66.6719C213.609 67.2969 213 67.9531 212.312 68.6406C211.625 69.3281 210.922 70.0156 210.203 70.7031C209.516 71.3594 208.812 72.0156 208.094 72.6719C207.406 73.2969 206.781 73.8594 206.219 74.3594L203.969 72.0625Z" fill="url(#paint0_linear_290_261)"/>
<path d="M108.148 7.67969C107.633 10.4297 106.82 13.1016 105.711 15.6953C104.602 18.2734 103.312 20.7188 101.844 23.0312C100.391 25.3281 98.8047 27.4688 97.0859 29.4531C95.3828 31.4375 93.6719 33.2109 91.9531 34.7734C90.25 36.3203 88.6016 37.6328 87.0078 38.7109C85.4141 39.7891 84 40.5781 82.7656 41.0781C82.5938 41.1562 82.4375 41.2031 82.2969 41.2188C82.1719 41.25 82.0859 41.2656 82.0391 41.2656C81.7266 41.2656 81.3984 41.1406 81.0547 40.8906C80.7266 40.6406 80.4062 40.3516 80.0938 40.0234C79.7969 39.6953 79.5312 39.3672 79.2969 39.0391C79.0781 38.7109 78.9219 38.4609 78.8281 38.2891C78.75 38.1641 78.6719 37.9766 78.5938 37.7266C78.5156 37.4922 78.4766 37.2188 78.4766 36.9062C78.4766 36.0938 78.5625 35 78.7344 33.625C78.9062 32.2344 79.1562 30.6484 79.4844 28.8672C79.8125 27.0859 80.1953 25.1484 80.6328 23.0547C81.0859 20.9609 81.5938 18.7969 82.1562 16.5625C82.7188 14.3281 83.3203 12.0625 83.9609 9.76562C84.6016 7.45312 85.2734 5.20312 85.9766 3.01562C86.2109 3.26563 86.5 3.59375 86.8438 4C87.1875 4.40625 87.5469 4.84375 87.9219 5.3125C88.2969 5.76562 88.6641 6.22656 89.0234 6.69531C89.3984 7.16406 89.7266 7.58594 90.0078 7.96094C90.3047 8.33594 90.5391 8.64844 90.7109 8.89844C90.8828 9.13281 90.9688 9.25 90.9688 9.25C90.125 11.7187 89.3359 14.1953 88.6016 16.6797C87.8828 19.1641 87.2031 21.6016 86.5625 23.9922C85.9375 26.3672 85.3516 28.6641 84.8047 30.8828C84.2578 33.1016 83.75 35.1797 83.2812 37.1172C85.125 35.9922 86.8516 34.6562 88.4609 33.1094C90.0859 31.5625 91.5781 29.8828 92.9375 28.0703C94.2969 26.2422 95.5078 24.3203 96.5703 22.3047C97.6484 20.2734 98.5547 18.2266 99.2891 16.1641C100.039 14.0859 100.609 12.0313 101 10C101.391 7.95313 101.586 5.99219 101.586 4.11719C101.586 3.58594 101.562 3.13281 101.516 2.75781C101.484 2.36719 101.445 2.03906 101.398 1.77344C101.352 1.50781 101.305 1.30469 101.258 1.16406C101.227 1.00781 101.203 0.890625 101.188 0.8125L108.148 7.67969ZM116.75 34.9375C116.75 35.0312 116.797 35.0781 116.891 35.0781C117.031 35.0781 117.266 34.9766 117.594 34.7734C117.922 34.5703 118.297 34.3125 118.719 34C119.141 33.6875 119.586 33.3359 120.055 32.9453C120.539 32.5547 121 32.1719 121.438 31.7969C121.875 31.4219 122.266 31.0781 122.609 30.7656C122.969 30.4531 123.242 30.2109 123.43 30.0391C123.57 30.1797 123.742 30.3672 123.945 30.6016C124.164 30.8359 124.359 31.0469 124.531 31.2344C124.156 31.5781 123.703 32 123.172 32.5C122.656 32.9844 122.094 33.4922 121.484 34.0234C120.891 34.5547 120.273 35.0859 119.633 35.6172C118.992 36.1328 118.367 36.5938 117.758 37C117.148 37.4062 116.57 37.7344 116.023 37.9844C115.477 38.25 115 38.3828 114.594 38.3828C114.312 38.3828 114 38.3281 113.656 38.2188C113.328 38.1094 113.023 37.9531 112.742 37.75C112.461 37.5625 112.227 37.3359 112.039 37.0703C111.852 36.8047 111.758 36.5078 111.758 36.1797C111.758 36.0547 111.75 35.9062 111.734 35.7344C111.734 35.5469 111.75 35.3125 111.781 35.0312C111.812 34.7344 111.875 34.3828 111.969 33.9766C112.062 33.5547 112.203 33.0391 112.391 32.4297C111.875 32.9766 111.266 33.5469 110.562 34.1406C109.875 34.7344 109.148 35.2969 108.383 35.8281C107.617 36.3594 106.844 36.8359 106.062 37.2578C105.297 37.6953 104.586 38.0234 103.93 38.2422C103.852 38.2734 103.789 38.2891 103.742 38.2891C103.695 38.2891 103.648 38.2891 103.602 38.2891C103.445 38.2891 103.242 38.2109 102.992 38.0547C102.727 37.8984 102.469 37.6875 102.219 37.4219C101.969 37.1719 101.758 36.8828 101.586 36.5547C101.398 36.2266 101.305 35.8984 101.305 35.5703C101.305 35.4766 101.352 35.1641 101.445 34.6328C101.539 34.1016 101.766 33.4297 102.125 32.6172C102.469 31.7891 102.984 30.8672 103.672 29.8516C104.359 28.8203 105.297 27.7656 106.484 26.6875C107.094 26.1406 107.75 25.625 108.453 25.1406C109.047 24.7344 109.727 24.3203 110.492 23.8984C111.258 23.4766 112.062 23.1406 112.906 22.8906C112.938 22.8906 112.961 22.8828 112.977 22.8672C113.008 22.8516 113.047 22.8594 113.094 22.8906C113.281 22.9531 113.5 23.0547 113.75 23.1953C114.016 23.3203 114.273 23.4609 114.523 23.6172C114.789 23.7578 115.016 23.9062 115.203 24.0625C115.406 24.2031 115.539 24.3203 115.602 24.4141C115.617 24.4453 115.617 24.4688 115.602 24.4844L115.555 24.5312C114.852 24.9062 114.188 25.3281 113.562 25.7969C112.938 26.25 112.383 26.6797 111.898 27.0859C111.336 27.5703 110.812 28.0469 110.328 28.5156C109.188 29.6406 108.398 30.6172 107.961 31.4453C107.523 32.2578 107.305 32.8438 107.305 33.2031C107.305 33.4688 107.414 33.6016 107.633 33.6016C107.852 33.6016 108.125 33.5156 108.453 33.3438C108.797 33.1562 109.18 32.9141 109.602 32.6172C110.023 32.3047 110.484 31.9453 110.984 31.5391C111.5 31.1172 112.031 30.6797 112.578 30.2266C113.062 29.8359 113.531 29.4141 113.984 28.9609C114.375 28.5859 114.781 28.1562 115.203 27.6719C115.625 27.1875 115.984 26.6953 116.281 26.1953C116.281 26.1797 116.289 26.1641 116.305 26.1484C116.32 26.1328 116.344 26.1328 116.375 26.1484C116.547 26.2734 116.742 26.4844 116.961 26.7812C117.18 27.0625 117.383 27.375 117.57 27.7188C117.758 28.0625 117.914 28.3984 118.039 28.7266C118.18 29.0391 118.25 29.2812 118.25 29.4531C117.891 30.1875 117.609 30.8594 117.406 31.4688C117.219 32.0625 117.07 32.5859 116.961 33.0391C116.867 33.4922 116.805 33.8828 116.773 34.2109C116.758 34.5234 116.75 34.7656 116.75 34.9375ZM130.016 25.6797C129.828 26.1797 129.641 26.6875 129.453 27.2031C129.266 27.7188 129.078 28.25 128.891 28.7969C129.875 27.6719 130.719 26.7578 131.422 26.0547C132.141 25.3359 132.742 24.7734 133.227 24.3672C133.727 23.9609 134.125 23.6875 134.422 23.5469C134.734 23.3906 134.977 23.3125 135.148 23.3125C135.352 23.3125 135.656 23.4141 136.062 23.6172C136.469 23.8203 136.875 24.0703 137.281 24.3672C137.703 24.6641 138.062 24.9688 138.359 25.2812C138.672 25.5938 138.828 25.8672 138.828 26.1016C138.828 26.1484 138.82 26.2109 138.805 26.2891C138.789 26.3516 138.766 26.4375 138.734 26.5469C138.609 26.9375 138.445 27.3984 138.242 27.9297C138.055 28.4609 137.852 29.0156 137.633 29.5938C137.414 30.1562 137.195 30.7266 136.977 31.3047C136.758 31.8672 136.562 32.3984 136.391 32.8984C136.219 33.3984 136.078 33.8359 135.969 34.2109C135.859 34.5859 135.805 34.8594 135.805 35.0312C135.805 35.125 135.852 35.1719 135.945 35.1719C136.117 35.1719 136.375 35.0703 136.719 34.8672C137.062 34.6641 137.453 34.3984 137.891 34.0703C138.344 33.7422 138.812 33.3828 139.297 32.9922C139.781 32.6016 140.242 32.2188 140.68 31.8438C141.133 31.4531 141.539 31.1016 141.898 30.7891C142.258 30.4766 142.531 30.2422 142.719 30.0859C142.875 30.2266 143.047 30.4062 143.234 30.625C143.422 30.8438 143.602 31.0469 143.773 31.2344C143.43 31.5781 143 32 142.484 32.5C141.969 32.9844 141.406 33.4844 140.797 34C140.203 34.5156 139.578 35.0312 138.922 35.5469C138.281 36.0625 137.656 36.5234 137.047 36.9297C136.438 37.3359 135.867 37.6641 135.336 37.9141C134.805 38.1641 134.359 38.2891 134 38.2891C133.766 38.2891 133.469 38.2031 133.109 38.0312C132.75 37.875 132.398 37.6719 132.055 37.4219C131.727 37.1875 131.445 36.9219 131.211 36.625C130.977 36.3281 130.859 36.0391 130.859 35.7578C131 35.1172 131.188 34.3906 131.422 33.5781C131.672 32.7656 131.938 31.9375 132.219 31.0938C132.5 30.2344 132.789 29.3906 133.086 28.5625C133.398 27.7188 133.695 26.9453 133.977 26.2422L133.93 26.2891C133.633 26.6484 133.203 27.125 132.641 27.7188C132.094 28.2969 131.469 29.0469 130.766 29.9688C130.062 30.875 129.32 31.9766 128.539 33.2734C127.758 34.5547 126.992 36.0781 126.242 37.8438C126.148 38.0625 126.062 38.2344 125.984 38.3594C125.906 38.4844 125.758 38.5469 125.539 38.5469C125.273 38.5469 124.969 38.4688 124.625 38.3125C124.297 38.1719 123.961 37.9766 123.617 37.7266C123.258 37.4922 122.906 37.2266 122.562 36.9297C122.203 36.6328 121.883 36.3359 121.602 36.0391C121.602 35.9453 121.648 35.6797 121.742 35.2422C121.82 34.8047 121.938 34.2578 122.094 33.6016C122.25 32.9297 122.445 32.1719 122.68 31.3281C122.914 30.4688 123.18 29.5703 123.477 28.6328C123.773 27.6953 124.102 26.7422 124.461 25.7734C124.805 24.7891 125.18 23.8438 125.586 22.9375C126.242 23.25 126.969 23.6328 127.766 24.0859C128.578 24.5391 129.328 25.0703 130.016 25.6797ZM162.125 31.2344C160.781 32.6094 159.43 33.875 158.07 35.0312C156.727 36.1719 155.391 37.2422 154.062 38.2422C153.812 38.9609 153.539 39.6875 153.242 40.4219C152.961 41.1719 152.664 41.9219 152.352 42.6719C151.898 43.7031 151.367 44.6875 150.758 45.625C150.164 46.5781 149.531 47.4531 148.859 48.25C148.188 49.0625 147.5 49.7891 146.797 50.4297C146.094 51.0859 145.414 51.6406 144.758 52.0938C144.117 52.5469 143.523 52.8984 142.977 53.1484C142.414 53.3984 141.938 53.5234 141.547 53.5234C141.281 53.5234 140.969 53.4062 140.609 53.1719C140.25 52.9375 139.914 52.6406 139.602 52.2812C139.273 51.9375 139 51.5547 138.781 51.1328C138.547 50.7266 138.43 50.3359 138.43 49.9609C138.43 49.1484 138.711 48.3516 139.273 47.5703C139.82 46.7891 140.586 45.9844 141.57 45.1562C142.539 44.3281 143.68 43.4531 144.992 42.5312C146.305 41.625 147.727 40.6406 149.258 39.5781C149.602 38.6875 149.984 37.6328 150.406 36.4141C150.844 35.1797 151.359 33.6641 151.953 31.8672C151.391 32.6484 150.734 33.4219 149.984 34.1875C149.234 34.9375 148.461 35.6094 147.664 36.2031C146.867 36.7969 146.07 37.2734 145.273 37.6328C144.492 38.0078 143.773 38.1953 143.117 38.1953C142.945 38.1953 142.727 38.1094 142.461 37.9375C142.18 37.7812 141.906 37.5703 141.641 37.3047C141.359 37.0391 141.125 36.7266 140.938 36.3672C140.734 36.0078 140.633 35.625 140.633 35.2188C140.633 34.7031 140.758 34.0859 141.008 33.3672C141.258 32.6328 141.625 31.8594 142.109 31.0469C142.578 30.2344 143.148 29.4062 143.82 28.5625C144.508 27.7188 145.273 26.9297 146.117 26.1953C146.977 25.4453 147.906 24.7812 148.906 24.2031C149.922 23.6094 151 23.1562 152.141 22.8438C152.312 22.8438 152.555 22.9141 152.867 23.0547C153.18 23.1797 153.484 23.3281 153.781 23.5C154.094 23.6562 154.359 23.8125 154.578 23.9688C154.812 24.125 154.93 24.2266 154.93 24.2734C154.93 24.3047 154.906 24.3438 154.859 24.3906C154.828 24.4062 154.805 24.4141 154.789 24.4141C154.43 24.6328 153.969 24.9375 153.406 25.3281C152.844 25.7188 152.25 26.1641 151.625 26.6641C151 27.1484 150.375 27.6719 149.75 28.2344C149.125 28.7969 148.555 29.3594 148.039 29.9219C147.539 30.4688 147.133 31 146.82 31.5156C146.508 32.0156 146.352 32.4688 146.352 32.875C146.352 33.0156 146.383 33.1406 146.445 33.25C146.523 33.3438 146.633 33.3906 146.773 33.3906C147.164 33.3906 147.602 33.2578 148.086 32.9922C148.586 32.7109 149.094 32.3516 149.609 31.9141C150.125 31.4766 150.641 30.9922 151.156 30.4609C151.672 29.9141 152.156 29.3828 152.609 28.8672C153.078 28.3359 153.492 27.8438 153.852 27.3906C154.211 26.9375 154.492 26.5703 154.695 26.2891C154.727 26.2578 154.75 26.2266 154.766 26.1953C154.797 26.1641 154.836 26.1328 154.883 26.1016C155.008 26.1328 155.172 26.2891 155.375 26.5703C155.594 26.8516 155.805 27.1797 156.008 27.5547C156.211 27.9141 156.383 28.2734 156.523 28.6328C156.68 28.9922 156.758 29.25 156.758 29.4062V29.4531C156.758 29.4688 156.742 29.5234 156.711 29.6172C156.539 30.1641 156.32 30.9297 156.055 31.9141C155.789 32.8984 155.453 34.0312 155.047 35.3125C156.047 34.5156 157.047 33.6797 158.047 32.8047C159.062 31.9297 160.07 30.9922 161.07 29.9922L162.125 31.2344ZM141.195 50.3828C141.508 50.3828 141.961 50.1406 142.555 49.6562C143.133 49.1875 143.75 48.5781 144.406 47.8281C145.062 47.0938 145.703 46.2734 146.328 45.3672C146.969 44.4766 147.5 43.6094 147.922 42.7656C146.906 43.5 145.977 44.1875 145.133 44.8281C144.289 45.4844 143.57 46.1172 142.977 46.7266C142.367 47.3359 141.898 47.9219 141.57 48.4844C141.227 49.0625 141.055 49.6328 141.055 50.1953C141.055 50.3203 141.102 50.3828 141.195 50.3828ZM173.164 34.9375C173.164 35.0312 173.211 35.0781 173.305 35.0781C173.477 35.0781 173.734 34.9766 174.078 34.7734C174.438 34.5703 174.844 34.3125 175.297 34C175.75 33.6875 176.227 33.3359 176.727 32.9453C177.227 32.5547 177.703 32.1797 178.156 31.8203C178.609 31.4453 179.016 31.1016 179.375 30.7891C179.75 30.4766 180.031 30.2422 180.219 30.0859C180.359 30.2266 180.523 30.4062 180.711 30.625C180.914 30.8438 181.102 31.0469 181.273 31.2344C180.93 31.5781 180.492 31.9922 179.961 32.4766C179.445 32.9609 178.875 33.4688 178.25 34C177.641 34.5156 177 35.0312 176.328 35.5469C175.672 36.0469 175.031 36.5 174.406 36.9062C173.781 37.2969 173.195 37.6172 172.648 37.8672C172.102 38.1172 171.648 38.2422 171.289 38.2422C171.023 38.2422 170.727 38.1562 170.398 37.9844C170.07 37.8281 169.758 37.6172 169.461 37.3516C169.18 37.1016 168.938 36.8203 168.734 36.5078C168.547 36.1953 168.453 35.8984 168.453 35.6172C168.453 35.3672 168.547 34.8906 168.734 34.1875C168.922 33.4844 169.148 32.6641 169.414 31.7266C168.711 32.6797 168.023 33.5234 167.352 34.2578C166.68 34.9766 166.062 35.5938 165.5 36.1094C164.938 36.625 164.445 37.0391 164.023 37.3516C163.602 37.6797 163.289 37.9141 163.086 38.0547C162.961 38.1328 162.812 38.1875 162.641 38.2188C162.469 38.2656 162.312 38.2891 162.172 38.2891C161.875 38.2891 161.547 38.1953 161.188 38.0078C160.828 37.8359 160.5 37.6172 160.203 37.3516C159.891 37.0859 159.633 36.7891 159.43 36.4609C159.211 36.1328 159.102 35.8203 159.102 35.5234C159.102 35.1797 159.219 34.6094 159.453 33.8125C159.672 33.0156 159.977 32.0625 160.367 30.9531C160.742 29.8438 161.188 28.6016 161.703 27.2266C162.219 25.8516 162.773 24.4062 163.367 22.8906C163.398 22.8125 163.422 22.7812 163.438 22.7969C163.469 22.7969 163.516 22.7969 163.578 22.7969C163.875 22.8438 164.281 22.9688 164.797 23.1719C165.312 23.3594 165.812 23.5703 166.297 23.8047C166.797 24.0391 167.227 24.2656 167.586 24.4844C167.945 24.6875 168.125 24.8281 168.125 24.9062C168.078 25.0156 167.953 25.2734 167.75 25.6797C167.562 26.0859 167.336 26.5781 167.07 27.1562C166.82 27.7188 166.547 28.3359 166.25 29.0078C165.969 29.6641 165.703 30.2969 165.453 30.9062C165.219 31.5156 165.023 32.0703 164.867 32.5703C164.711 33.0547 164.633 33.4141 164.633 33.6484C164.633 33.7109 164.664 33.7422 164.727 33.7422C164.852 33.7422 165.125 33.5781 165.547 33.25C165.969 32.9062 166.484 32.375 167.094 31.6562C167.719 30.9375 168.422 30.0156 169.203 28.8906C169.984 27.75 170.797 26.3828 171.641 24.7891L172.297 22.9375C172.344 22.8125 172.445 22.75 172.602 22.75C172.711 22.75 172.945 22.8594 173.305 23.0781C173.68 23.2812 174.07 23.5234 174.477 23.8047C174.898 24.0703 175.273 24.3438 175.602 24.625C175.93 24.8906 176.109 25.0781 176.141 25.1875C176.141 25.2344 176.133 25.3203 176.117 25.4453C176.102 25.5547 176.078 25.6484 176.047 25.7266C175.891 26.1484 175.711 26.6484 175.508 27.2266C175.305 27.7891 175.094 28.3828 174.875 29.0078C174.672 29.6172 174.469 30.2344 174.266 30.8594C174.062 31.4844 173.875 32.0703 173.703 32.6172C173.547 33.1484 173.414 33.625 173.305 34.0469C173.211 34.4531 173.164 34.75 173.164 34.9375ZM193.391 34.9375C193.391 35.0312 193.438 35.0781 193.531 35.0781C193.672 35.0781 193.906 34.9766 194.234 34.7734C194.562 34.5703 194.938 34.3125 195.359 34C195.781 33.6875 196.227 33.3359 196.695 32.9453C197.18 32.5547 197.641 32.1719 198.078 31.7969C198.516 31.4219 198.906 31.0781 199.25 30.7656C199.609 30.4531 199.883 30.2109 200.07 30.0391C200.211 30.1797 200.383 30.3672 200.586 30.6016C200.805 30.8359 201 31.0469 201.172 31.2344C200.797 31.5781 200.344 32 199.812 32.5C199.297 32.9844 198.734 33.4922 198.125 34.0234C197.531 34.5547 196.914 35.0859 196.273 35.6172C195.633 36.1328 195.008 36.5938 194.398 37C193.789 37.4062 193.211 37.7344 192.664 37.9844C192.117 38.25 191.641 38.3828 191.234 38.3828C190.953 38.3828 190.641 38.3281 190.297 38.2188C189.969 38.1094 189.664 37.9531 189.383 37.75C189.102 37.5625 188.867 37.3359 188.68 37.0703C188.492 36.8047 188.398 36.5078 188.398 36.1797C188.398 36.0547 188.391 35.9062 188.375 35.7344C188.375 35.5469 188.391 35.3125 188.422 35.0312C188.453 34.7344 188.516 34.3828 188.609 33.9766C188.703 33.5547 188.844 33.0391 189.031 32.4297C188.516 32.9766 187.906 33.5469 187.203 34.1406C186.516 34.7344 185.789 35.2969 185.023 35.8281C184.258 36.3594 183.484 36.8359 182.703 37.2578C181.938 37.6953 181.227 38.0234 180.57 38.2422C180.492 38.2734 180.43 38.2891 180.383 38.2891C180.336 38.2891 180.289 38.2891 180.242 38.2891C180.086 38.2891 179.883 38.2109 179.633 38.0547C179.367 37.8984 179.109 37.6875 178.859 37.4219C178.609 37.1719 178.398 36.8828 178.227 36.5547C178.039 36.2266 177.945 35.8984 177.945 35.5703C177.945 35.4766 177.992 35.1641 178.086 34.6328C178.18 34.1016 178.406 33.4297 178.766 32.6172C179.109 31.7891 179.625 30.8672 180.312 29.8516C181 28.8203 181.938 27.7656 183.125 26.6875C183.734 26.1406 184.391 25.625 185.094 25.1406C185.688 24.7344 186.367 24.3203 187.133 23.8984C187.898 23.4766 188.703 23.1406 189.547 22.8906C189.578 22.8906 189.602 22.8828 189.617 22.8672C189.648 22.8516 189.688 22.8594 189.734 22.8906C189.922 22.9531 190.141 23.0547 190.391 23.1953C190.656 23.3203 190.914 23.4609 191.164 23.6172C191.43 23.7578 191.656 23.9062 191.844 24.0625C192.047 24.2031 192.18 24.3203 192.242 24.4141C192.258 24.4453 192.258 24.4688 192.242 24.4844L192.195 24.5312C191.492 24.9062 190.828 25.3281 190.203 25.7969C189.578 26.25 189.023 26.6797 188.539 27.0859C187.977 27.5703 187.453 28.0469 186.969 28.5156C185.828 29.6406 185.039 30.6172 184.602 31.4453C184.164 32.2578 183.945 32.8438 183.945 33.2031C183.945 33.4688 184.055 33.6016 184.273 33.6016C184.492 33.6016 184.766 33.5156 185.094 33.3438C185.438 33.1562 185.82 32.9141 186.242 32.6172C186.664 32.3047 187.125 31.9453 187.625 31.5391C188.141 31.1172 188.672 30.6797 189.219 30.2266C189.703 29.8359 190.172 29.4141 190.625 28.9609C191.016 28.5859 191.422 28.1562 191.844 27.6719C192.266 27.1875 192.625 26.6953 192.922 26.1953C192.922 26.1797 192.93 26.1641 192.945 26.1484C192.961 26.1328 192.984 26.1328 193.016 26.1484C193.188 26.2734 193.383 26.4844 193.602 26.7812C193.82 27.0625 194.023 27.375 194.211 27.7188C194.398 28.0625 194.555 28.3984 194.68 28.7266C194.82 29.0391 194.891 29.2812 194.891 29.4531C194.531 30.1875 194.25 30.8594 194.047 31.4688C193.859 32.0625 193.711 32.5859 193.602 33.0391C193.508 33.4922 193.445 33.8828 193.414 34.2109C193.398 34.5234 193.391 34.7656 193.391 34.9375ZM210.641 27.2969C210.438 27.9062 210.18 28.6016 209.867 29.3828C209.57 30.1641 209.281 30.9297 209 31.6797C208.719 32.4297 208.477 33.1094 208.273 33.7188C208.086 34.3281 207.992 34.7656 207.992 35.0312C207.992 35.125 208.039 35.1719 208.133 35.1719C208.305 35.1719 208.562 35.0703 208.906 34.8672C209.25 34.6641 209.641 34.3984 210.078 34.0703C210.531 33.7422 211 33.3828 211.484 32.9922C211.969 32.6016 212.43 32.2188 212.867 31.8438C213.32 31.4531 213.727 31.1016 214.086 30.7891C214.445 30.4766 214.719 30.2422 214.906 30.0859C215.047 30.2266 215.211 30.4062 215.398 30.625C215.602 30.8438 215.789 31.0469 215.961 31.2344C215.617 31.5781 215.188 32 214.672 32.5C214.156 32.9844 213.594 33.4844 212.984 34C212.391 34.5156 211.766 35.0312 211.109 35.5469C210.469 36.0625 209.836 36.5234 209.211 36.9297C208.602 37.3359 208.031 37.6641 207.5 37.9141C206.969 38.1641 206.523 38.2891 206.164 38.2891C205.93 38.2891 205.633 38.2031 205.273 38.0312C204.914 37.875 204.57 37.6719 204.242 37.4219C203.914 37.1875 203.633 36.9219 203.398 36.625C203.164 36.3281 203.047 36.0391 203.047 35.7578C203.281 34.7109 203.516 33.7969 203.75 33.0156C203.984 32.2344 204.203 31.5703 204.406 31.0234C204.609 30.4609 204.789 30.0078 204.945 29.6641C205.102 29.3203 205.219 29.0625 205.297 28.8906C205.109 28.8125 204.93 28.7266 204.758 28.6328C204.586 28.5391 204.414 28.4453 204.242 28.3516C203.992 28.6172 203.711 28.8984 203.398 29.1953C203.102 29.4922 202.797 29.7891 202.484 30.0859C202.172 30.3828 201.859 30.6719 201.547 30.9531C201.234 31.2344 200.953 31.4922 200.703 31.7266L199.578 30.5781C199.984 30.1875 200.477 29.7188 201.055 29.1719C201.617 28.6094 202.172 28.0469 202.719 27.4844C202.328 27.25 201.977 27.0312 201.664 26.8281C201.352 26.6094 201.086 26.4141 200.867 26.2422C200.602 26.0547 200.367 25.8828 200.164 25.7266C200.07 25.6797 200.023 25.5781 200.023 25.4219C200.023 25.25 200.094 25.0078 200.234 24.6953C200.359 24.3672 200.523 24.0234 200.727 23.6641C200.93 23.2891 201.148 22.9141 201.383 22.5391C201.617 22.1484 201.844 21.7969 202.062 21.4844C202.281 21.1719 202.469 20.9219 202.625 20.7344C202.797 20.5312 202.906 20.4297 202.953 20.4297C202.984 20.4297 203.086 20.4688 203.258 20.5469C203.445 20.625 203.641 20.7188 203.844 20.8281C204.047 20.9219 204.234 21.0312 204.406 21.1562C204.578 21.2812 204.688 21.3906 204.734 21.4844C204.75 21.5625 204.766 21.7266 204.781 21.9766C204.797 22.2266 204.812 22.5312 204.828 22.8906C205.438 23.2031 206.062 23.5625 206.703 23.9688C207.344 24.3594 207.93 24.7344 208.461 25.0938C209.086 25.5 209.68 25.9141 210.242 26.3359C210.445 26.4609 210.57 26.6172 210.617 26.8047C210.68 26.9922 210.688 27.1562 210.641 27.2969ZM228.898 34.3984C228.898 34.7891 229.023 34.9844 229.273 34.9844C229.57 34.9844 229.922 34.8906 230.328 34.7031C230.75 34.5156 231.188 34.2734 231.641 33.9766C232.094 33.6641 232.555 33.3203 233.023 32.9453C233.492 32.5703 233.93 32.2031 234.336 31.8438C234.758 31.4844 235.133 31.1484 235.461 30.8359C235.789 30.5234 236.047 30.2734 236.234 30.0859C236.391 30.2266 236.578 30.4062 236.797 30.625C237.016 30.8438 237.211 31.0469 237.383 31.2344C236.977 31.6406 236.516 32.0938 236 32.5938C235.484 33.0938 234.93 33.6094 234.336 34.1406C233.758 34.6562 233.148 35.1641 232.508 35.6641C231.883 36.1484 231.258 36.5859 230.633 36.9766C230.008 37.3516 229.398 37.6562 228.805 37.8906C228.211 38.125 227.648 38.2422 227.117 38.2422C226.836 38.2422 226.492 38.1094 226.086 37.8438C225.68 37.5938 225.289 37.2812 224.914 36.9062C224.539 36.5312 224.219 36.1406 223.953 35.7344C223.703 35.3125 223.578 34.9375 223.578 34.6094C223.578 33.8906 223.625 33.1406 223.719 32.3594C223.016 32.9844 222.336 33.5781 221.68 34.1406C221.023 34.7031 220.359 35.2344 219.688 35.7344C219.031 36.2188 218.352 36.6641 217.648 37.0703C216.961 37.4922 216.227 37.8516 215.445 38.1484C215.211 38.2422 215.008 38.2891 214.836 38.2891C214.68 38.2891 214.477 38.2109 214.227 38.0547C213.977 37.8984 213.734 37.6953 213.5 37.4453C213.266 37.2109 213.062 36.9453 212.891 36.6484C212.719 36.3359 212.633 36.0391 212.633 35.7578C212.633 35.1172 212.758 34.4062 213.008 33.625C213.242 32.8281 213.594 32.0156 214.062 31.1875C214.516 30.3438 215.078 29.5078 215.75 28.6797C216.406 27.8359 217.156 27.0469 218 26.3125C218.844 25.5625 219.773 24.8906 220.789 24.2969C221.805 23.6875 222.891 23.2031 224.047 22.8438C224.266 22.875 224.547 22.9766 224.891 23.1484C225.234 23.3047 225.555 23.4688 225.852 23.6406C226.414 22.0312 227.055 20.4219 227.773 18.8125C228.508 17.1875 229.281 15.6328 230.094 14.1484C230.922 12.6484 231.781 11.25 232.672 9.95312C233.562 8.64062 234.453 7.48438 235.344 6.48438C236.234 5.46875 237.109 4.64844 237.969 4.02344C238.844 3.39844 239.672 3.01562 240.453 2.875C240.797 2.875 241.156 2.99219 241.531 3.22656C241.922 3.44531 242.289 3.71875 242.633 4.04688C242.977 4.35937 243.266 4.6875 243.5 5.03125C243.75 5.375 243.906 5.66406 243.969 5.89844C243.969 6.61719 243.789 7.45312 243.43 8.40625C243.07 9.35938 242.57 10.3906 241.93 11.5C241.305 12.5938 240.555 13.7422 239.68 14.9453C238.82 16.1484 237.891 17.375 236.891 18.625C235.891 19.8594 234.836 21.0938 233.727 22.3281C232.633 23.5625 231.531 24.7578 230.422 25.9141C229.953 27.5078 229.578 29.0312 229.297 30.4844C229.031 31.9219 228.898 33.2266 228.898 34.3984ZM240.664 5.71094C240.398 5.71094 240.07 5.90625 239.68 6.29688C239.305 6.6875 238.875 7.23438 238.391 7.9375C237.922 8.625 237.422 9.44531 236.891 10.3984C236.359 11.3516 235.82 12.3906 235.273 13.5156C234.727 14.6406 234.18 15.8359 233.633 17.1016C233.086 18.3672 232.57 19.6484 232.086 20.9453C233.258 19.5078 234.367 18.0703 235.414 16.6328C236.477 15.1797 237.406 13.8047 238.203 12.5078C239 11.2109 239.633 10.0234 240.102 8.94531C240.57 7.86719 240.805 6.97656 240.805 6.27344C240.805 6.17969 240.797 6.0625 240.781 5.92188C240.781 5.78125 240.742 5.71094 240.664 5.71094ZM218.422 33.6016C218.938 33.6016 219.703 33.2422 220.719 32.5234C221.734 31.7891 222.883 30.8125 224.164 29.5938C224.305 28.875 224.477 28.1484 224.68 27.4141C224.883 26.6641 225.109 25.9062 225.359 25.1406C224.453 25.75 223.562 26.4453 222.688 27.2266C221.828 28.0078 221.062 28.7812 220.391 29.5469C219.719 30.3125 219.172 31.0312 218.75 31.7031C218.344 32.3594 218.141 32.8594 218.141 33.2031C218.141 33.4688 218.234 33.6016 218.422 33.6016Z" fill="url(#paint1_linear_290_261)"/>
<path d="M66.328 117H59.224L51.704 105.608V117H44.6V94.344H51.704L59.224 105.928V94.344H66.328V117ZM85.5375 94.344V99.976H76.6415V103.112H83.0415V108.456H76.6415V117H69.5375V94.344H85.5375ZM105.736 94.344V99.976H99.7198V117H92.6158V99.976H86.6638V94.344H105.736Z" fill="white"/>
<defs>
<linearGradient id="paint0_linear_290_261" x1="0.999999" y1="94.1" x2="177.809" y2="-45.0701" gradientUnits="userSpaceOnUse">
<stop stop-color="#1087E3"/>
<stop offset="1" stop-color="#7A22BB"/>
</linearGradient>
<linearGradient id="paint1_linear_290_261" x1="77" y1="57.1" x2="228.274" y2="-23.7883" gradientUnits="userSpaceOnUse">
<stop stop-color="#1087E3"/>
<stop offset="1" stop-color="#7A22BB"/>
</linearGradient>
</defs>
</svg>
