 <svg width="419" height="73" viewBox="0 0 419 73" fill="none" xmlns="http://www.w3.org/2000/svg">
<mask id="path-1-outside-1_246_464" maskUnits="userSpaceOnUse" x="0" y="6" width="419" height="63" fill="black">
<rect fill="white" y="6" width="419" height="63"/>
<path d="M21.448 62.512C19.9973 62.512 18.6533 62.3627 17.416 62.064C16.1787 61.7653 14.8773 61.1467 13.512 60.208C12.1893 59.2267 11.0587 57.9467 10.12 56.368C7.98667 52.784 6.92 47.3867 6.92 40.176C6.92 36.208 7.45333 32.7093 8.52 29.68C9.58667 26.6507 10.9307 24.304 12.552 22.64C14.1733 20.9333 16.1147 19.5467 18.376 18.48C20.6373 17.4133 22.7493 16.7307 24.712 16.432C26.6747 16.0907 28.7653 15.92 30.984 15.92C36.104 15.92 39.7093 16.368 41.8 17.264C43.8907 18.1173 44.936 19.7813 44.936 22.256C44.936 24.2187 44.5733 26.352 43.848 28.656C43.1227 30.9173 42.056 32.048 40.648 32.048C40.3067 32.048 38.856 31.728 36.296 31.088C33.736 30.4053 31.816 30.064 30.536 30.064C26.8667 30.064 25.032 33.1573 25.032 39.344C25.032 42.4587 25.4587 44.784 26.312 46.32C27.1653 47.8133 28.232 48.6453 29.512 48.816V43.056C29.512 41.9893 30.6 41.008 32.776 40.112C34.952 39.216 37.0427 38.768 39.048 38.768C41.0533 38.768 42.504 38.896 43.4 39.152C44.3387 39.408 44.9787 39.7707 45.32 40.24C45.9173 41.008 46.216 41.6907 46.216 42.288V60.016C46.216 60.5707 45.0853 61.0187 42.824 61.36C40.6053 61.7013 38.28 61.872 35.848 61.872C33.4587 61.872 31.944 61.7653 31.304 61.552C30.664 61.296 30.3013 60.6347 30.216 59.568L29.768 55.792H29.256C28.9573 57.6267 28.1893 59.2053 26.952 60.528C25.7573 61.8507 23.9227 62.512 21.448 62.512ZM67.197 47.536C67.197 50.3093 68.5197 51.696 71.165 51.696C72.701 51.696 74.7063 51.184 77.181 50.16C79.6557 49.0933 80.957 48.56 81.085 48.56C81.8957 48.56 82.9623 49.776 84.285 52.208C85.6077 54.64 86.269 56.432 86.269 57.584C86.269 59.248 84.5623 60.5067 81.149 61.36C77.7357 62.2133 74.3863 62.64 71.101 62.64C67.8583 62.64 65.1277 62.384 62.909 61.872C60.733 61.36 58.941 60.72 57.533 59.952C56.1677 59.1413 54.9517 58.16 53.885 57.008C52.861 55.856 52.093 54.768 51.581 53.744C51.069 52.6773 50.6637 51.504 50.365 50.224C49.9383 48.3467 49.725 46.4053 49.725 44.4C49.725 36.6347 51.7517 31.28 55.805 28.336C57.8103 26.8427 60.0503 25.7973 62.525 25.2C64.9997 24.6027 67.9223 24.304 71.293 24.304C82.0877 24.304 87.485 28.0587 87.485 35.568C87.485 43.5467 81.4263 47.536 69.309 47.536H67.197ZM67.069 38.192V42.416C68.3063 42.416 69.309 41.9253 70.077 40.944C70.8877 39.9627 71.293 38.768 71.293 37.36C71.293 34.8 70.6317 33.52 69.309 33.52C67.8157 33.52 67.069 35.0773 67.069 38.192ZM129.895 40.752V60.464C129.895 60.9333 128.679 61.3173 126.247 61.616C123.815 61.872 121.297 62 118.695 62C116.135 62 114.471 61.8933 113.703 61.68C112.977 61.424 112.615 61.0187 112.615 60.464V40.112C112.615 38.192 112.529 36.9333 112.359 36.336C112.231 35.7387 112.103 35.2053 111.975 34.736C111.676 33.9253 111.143 33.52 110.375 33.52C109.18 33.52 108.583 34.096 108.583 35.248V60.464C108.583 60.9333 107.367 61.3173 104.935 61.616C102.545 61.872 100.049 62 97.4465 62C94.8865 62 93.2225 61.8933 92.4545 61.68C91.6865 61.424 91.3025 61.0187 91.3025 60.464V28.912C91.3025 28.016 92.5185 27.12 94.9505 26.224C97.4252 25.328 100.028 24.88 102.759 24.88C105.489 24.88 107.025 25.6693 107.367 27.248L107.943 30.064H108.391C109.628 27.5893 111.761 25.8613 114.791 24.88C116.028 24.496 117.393 24.304 118.887 24.304C123.196 24.304 126.097 25.6053 127.591 28.208C129.127 30.768 129.895 34.9493 129.895 40.752ZM151.197 47.536C151.197 50.3093 152.52 51.696 155.165 51.696C156.701 51.696 158.706 51.184 161.181 50.16C163.656 49.0933 164.957 48.56 165.085 48.56C165.896 48.56 166.962 49.776 168.285 52.208C169.608 54.64 170.269 56.432 170.269 57.584C170.269 59.248 168.562 60.5067 165.149 61.36C161.736 62.2133 158.386 62.64 155.101 62.64C151.858 62.64 149.128 62.384 146.909 61.872C144.733 61.36 142.941 60.72 141.533 59.952C140.168 59.1413 138.952 58.16 137.885 57.008C136.861 55.856 136.093 54.768 135.581 53.744C135.069 52.6773 134.664 51.504 134.365 50.224C133.938 48.3467 133.725 46.4053 133.725 44.4C133.725 36.6347 135.752 31.28 139.805 28.336C141.81 26.8427 144.05 25.7973 146.525 25.2C149 24.6027 151.922 24.304 155.293 24.304C166.088 24.304 171.485 28.0587 171.485 35.568C171.485 43.5467 165.426 47.536 153.309 47.536H151.197ZM151.069 38.192V42.416C152.306 42.416 153.309 41.9253 154.077 40.944C154.888 39.9627 155.293 38.768 155.293 37.36C155.293 34.8 154.632 33.52 153.309 33.52C151.816 33.52 151.069 35.0773 151.069 38.192ZM192.711 62.576C185.628 62.576 180.444 61.8933 177.159 60.528C175.495 59.8027 174.663 59.0987 174.663 58.416C174.663 56.6667 175.175 54.6187 176.199 52.272C177.223 49.9253 178.119 48.752 178.887 48.752C179.313 48.752 180.743 49.2213 183.175 50.16C185.649 51.0987 187.719 51.568 189.383 51.568C191.089 51.568 192.199 51.4613 192.711 51.248C193.265 51.0347 193.543 50.6293 193.543 50.032C193.543 49.392 193.116 48.9013 192.263 48.56C191.409 48.176 190.343 47.92 189.062 47.792C187.783 47.664 186.396 47.408 184.903 47.024C183.452 46.64 182.087 46.1493 180.807 45.552C179.527 44.9547 178.46 43.9733 177.607 42.608C176.753 41.2 176.327 39.7067 176.327 38.128C176.327 36.5067 176.369 35.312 176.455 34.544C176.54 33.7333 176.881 32.624 177.479 31.216C178.119 29.7653 178.993 28.592 180.103 27.696C181.255 26.8 183.004 25.9893 185.351 25.264C187.74 24.5387 190.407 24.176 193.351 24.176C196.295 24.176 198.748 24.2827 200.711 24.496C202.716 24.6667 204.273 24.9013 205.382 25.2C206.535 25.4987 207.473 25.84 208.199 26.224C209.436 26.864 210.055 27.568 210.055 28.336C210.055 30 209.457 31.92 208.263 34.096C207.068 36.272 206.108 37.36 205.382 37.36C204.7 37.36 203.185 36.9973 200.839 36.272C198.492 35.504 196.764 35.12 195.655 35.12C193.863 35.12 192.967 35.632 192.967 36.656C192.967 37.296 193.564 37.7867 194.759 38.128C195.996 38.4267 197.468 38.7467 199.175 39.088C200.881 39.4293 202.588 39.92 204.295 40.56C206.044 41.1573 207.516 42.2667 208.711 43.888C209.948 45.5093 210.567 47.5573 210.567 50.032C210.567 58.3947 204.615 62.576 192.711 62.576ZM232.028 28.912V60.464C232.028 60.9333 230.79 61.3173 228.316 61.616C225.884 61.872 223.366 62 220.764 62C218.204 62 216.54 61.8933 215.772 61.68C215.046 61.424 214.684 61.0187 214.684 60.464V30.064C214.684 29.1253 215.878 28.208 218.268 27.312C220.7 26.3733 223.345 25.904 226.204 25.904C230.086 25.904 232.028 26.9067 232.028 28.912ZM223.324 12.08C226.14 12.08 228.337 12.5067 229.916 13.36C231.537 14.1707 232.348 15.664 232.348 17.84C232.348 21.68 229.361 23.6 223.388 23.6C217.414 23.6 214.428 21.68 214.428 17.84C214.428 14 217.393 12.08 223.324 12.08ZM254.211 62.576C247.128 62.576 241.944 61.8933 238.659 60.528C236.995 59.8027 236.163 59.0987 236.163 58.416C236.163 56.6667 236.675 54.6187 237.699 52.272C238.723 49.9253 239.619 48.752 240.387 48.752C240.813 48.752 242.243 49.2213 244.675 50.16C247.149 51.0987 249.219 51.568 250.883 51.568C252.589 51.568 253.699 51.4613 254.211 51.248C254.765 51.0347 255.043 50.6293 255.043 50.032C255.043 49.392 254.616 48.9013 253.763 48.56C252.909 48.176 251.843 47.92 250.562 47.792C249.283 47.664 247.896 47.408 246.403 47.024C244.952 46.64 243.587 46.1493 242.307 45.552C241.027 44.9547 239.96 43.9733 239.107 42.608C238.253 41.2 237.827 39.7067 237.827 38.128C237.827 36.5067 237.869 35.312 237.955 34.544C238.04 33.7333 238.381 32.624 238.979 31.216C239.619 29.7653 240.493 28.592 241.603 27.696C242.755 26.8 244.504 25.9893 246.851 25.264C249.24 24.5387 251.907 24.176 254.851 24.176C257.795 24.176 260.248 24.2827 262.211 24.496C264.216 24.6667 265.773 24.9013 266.882 25.2C268.035 25.4987 268.973 25.84 269.699 26.224C270.936 26.864 271.555 27.568 271.555 28.336C271.555 30 270.957 31.92 269.763 34.096C268.568 36.272 267.608 37.36 266.882 37.36C266.2 37.36 264.685 36.9973 262.339 36.272C259.992 35.504 258.264 35.12 257.155 35.12C255.363 35.12 254.467 35.632 254.467 36.656C254.467 37.296 255.064 37.7867 256.259 38.128C257.496 38.4267 258.968 38.7467 260.675 39.088C262.381 39.4293 264.088 39.92 265.795 40.56C267.544 41.1573 269.016 42.2667 270.211 43.888C271.448 45.5093 272.067 47.5573 272.067 50.032C272.067 58.3947 266.115 62.576 254.211 62.576ZM308.479 60.144C308.479 60.6987 307.156 61.1467 304.51 61.488C301.908 61.8293 299.305 62 296.703 62C294.1 62 292.436 61.8507 291.711 61.552C290.985 61.2533 290.623 60.784 290.623 60.144V20.848C290.623 19.7813 291.839 18.8 294.271 17.904C296.745 17.008 299.54 16.56 302.655 16.56C303.764 16.56 304.596 16.6027 305.151 16.688C306.601 16.9013 307.625 17.8187 308.223 19.44L314.367 35.952H314.623V20.848C314.623 19.7813 315.839 18.8 318.271 17.904C320.703 17.008 323.476 16.56 326.591 16.56C329.279 16.56 330.985 17.072 331.711 18.096C332.223 18.8213 332.479 19.4827 332.479 20.08V60.144C332.479 60.6987 331.156 61.1467 328.511 61.488C325.908 61.8293 323.028 62 319.871 62C316.756 62 315.049 61.5947 314.751 60.784L308.799 45.04H308.479V60.144ZM355.479 60.144C355.479 60.784 354.092 61.2533 351.319 61.552C348.588 61.8507 345.985 62 343.51 62C341.036 62 339.436 61.8507 338.711 61.552C337.985 61.2533 337.623 60.784 337.623 60.144V19.568C337.623 18.4587 338.177 17.6693 339.286 17.2C340.396 16.7307 342.487 16.496 345.559 16.496H369.303C370.199 16.496 370.647 18.1173 370.647 21.36C370.647 24.56 370.433 27.0133 370.007 28.72C369.623 30.384 369.111 31.216 368.471 31.216L355.479 30.576V34.928C361.153 34.672 364.951 34.544 366.871 34.544C367.511 34.544 367.937 34.8853 368.151 35.568C368.407 36.2507 368.535 37.5733 368.535 39.536C368.535 41.456 368.321 43.312 367.895 45.104C367.468 46.8533 366.871 47.728 366.103 47.728L355.479 47.344V60.144ZM402.323 60.464C402.323 60.9333 401 61.3173 398.355 61.616C395.752 61.872 393.128 62 390.483 62C387.88 62 386.216 61.8933 385.491 61.68C384.808 61.424 384.467 61.0187 384.467 60.464V32.944H375.571C375.101 32.944 374.696 32.3467 374.355 31.152C374.013 29.9573 373.843 28.1867 373.843 25.84C373.843 23.4507 374.099 21.3173 374.611 19.44C375.123 17.52 375.805 16.56 376.659 16.56H411.283C411.923 16.56 412.349 17.1573 412.562 18.352C412.819 19.5467 412.947 21.2747 412.947 23.536C412.947 25.7973 412.712 27.9307 412.243 29.936C411.773 31.9413 411.133 32.944 410.323 32.944H402.323V60.464Z"/>
</mask>
<path d="M21.448 62.512C19.9973 62.512 18.6533 62.3627 17.416 62.064C16.1787 61.7653 14.8773 61.1467 13.512 60.208C12.1893 59.2267 11.0587 57.9467 10.12 56.368C7.98667 52.784 6.92 47.3867 6.92 40.176C6.92 36.208 7.45333 32.7093 8.52 29.68C9.58667 26.6507 10.9307 24.304 12.552 22.64C14.1733 20.9333 16.1147 19.5467 18.376 18.48C20.6373 17.4133 22.7493 16.7307 24.712 16.432C26.6747 16.0907 28.7653 15.92 30.984 15.92C36.104 15.92 39.7093 16.368 41.8 17.264C43.8907 18.1173 44.936 19.7813 44.936 22.256C44.936 24.2187 44.5733 26.352 43.848 28.656C43.1227 30.9173 42.056 32.048 40.648 32.048C40.3067 32.048 38.856 31.728 36.296 31.088C33.736 30.4053 31.816 30.064 30.536 30.064C26.8667 30.064 25.032 33.1573 25.032 39.344C25.032 42.4587 25.4587 44.784 26.312 46.32C27.1653 47.8133 28.232 48.6453 29.512 48.816V43.056C29.512 41.9893 30.6 41.008 32.776 40.112C34.952 39.216 37.0427 38.768 39.048 38.768C41.0533 38.768 42.504 38.896 43.4 39.152C44.3387 39.408 44.9787 39.7707 45.32 40.24C45.9173 41.008 46.216 41.6907 46.216 42.288V60.016C46.216 60.5707 45.0853 61.0187 42.824 61.36C40.6053 61.7013 38.28 61.872 35.848 61.872C33.4587 61.872 31.944 61.7653 31.304 61.552C30.664 61.296 30.3013 60.6347 30.216 59.568L29.768 55.792H29.256C28.9573 57.6267 28.1893 59.2053 26.952 60.528C25.7573 61.8507 23.9227 62.512 21.448 62.512ZM67.197 47.536C67.197 50.3093 68.5197 51.696 71.165 51.696C72.701 51.696 74.7063 51.184 77.181 50.16C79.6557 49.0933 80.957 48.56 81.085 48.56C81.8957 48.56 82.9623 49.776 84.285 52.208C85.6077 54.64 86.269 56.432 86.269 57.584C86.269 59.248 84.5623 60.5067 81.149 61.36C77.7357 62.2133 74.3863 62.64 71.101 62.64C67.8583 62.64 65.1277 62.384 62.909 61.872C60.733 61.36 58.941 60.72 57.533 59.952C56.1677 59.1413 54.9517 58.16 53.885 57.008C52.861 55.856 52.093 54.768 51.581 53.744C51.069 52.6773 50.6637 51.504 50.365 50.224C49.9383 48.3467 49.725 46.4053 49.725 44.4C49.725 36.6347 51.7517 31.28 55.805 28.336C57.8103 26.8427 60.0503 25.7973 62.525 25.2C64.9997 24.6027 67.9223 24.304 71.293 24.304C82.0877 24.304 87.485 28.0587 87.485 35.568C87.485 43.5467 81.4263 47.536 69.309 47.536H67.197ZM67.069 38.192V42.416C68.3063 42.416 69.309 41.9253 70.077 40.944C70.8877 39.9627 71.293 38.768 71.293 37.36C71.293 34.8 70.6317 33.52 69.309 33.52C67.8157 33.52 67.069 35.0773 67.069 38.192ZM129.895 40.752V60.464C129.895 60.9333 128.679 61.3173 126.247 61.616C123.815 61.872 121.297 62 118.695 62C116.135 62 114.471 61.8933 113.703 61.68C112.977 61.424 112.615 61.0187 112.615 60.464V40.112C112.615 38.192 112.529 36.9333 112.359 36.336C112.231 35.7387 112.103 35.2053 111.975 34.736C111.676 33.9253 111.143 33.52 110.375 33.52C109.18 33.52 108.583 34.096 108.583 35.248V60.464C108.583 60.9333 107.367 61.3173 104.935 61.616C102.545 61.872 100.049 62 97.4465 62C94.8865 62 93.2225 61.8933 92.4545 61.68C91.6865 61.424 91.3025 61.0187 91.3025 60.464V28.912C91.3025 28.016 92.5185 27.12 94.9505 26.224C97.4252 25.328 100.028 24.88 102.759 24.88C105.489 24.88 107.025 25.6693 107.367 27.248L107.943 30.064H108.391C109.628 27.5893 111.761 25.8613 114.791 24.88C116.028 24.496 117.393 24.304 118.887 24.304C123.196 24.304 126.097 25.6053 127.591 28.208C129.127 30.768 129.895 34.9493 129.895 40.752ZM151.197 47.536C151.197 50.3093 152.52 51.696 155.165 51.696C156.701 51.696 158.706 51.184 161.181 50.16C163.656 49.0933 164.957 48.56 165.085 48.56C165.896 48.56 166.962 49.776 168.285 52.208C169.608 54.64 170.269 56.432 170.269 57.584C170.269 59.248 168.562 60.5067 165.149 61.36C161.736 62.2133 158.386 62.64 155.101 62.64C151.858 62.64 149.128 62.384 146.909 61.872C144.733 61.36 142.941 60.72 141.533 59.952C140.168 59.1413 138.952 58.16 137.885 57.008C136.861 55.856 136.093 54.768 135.581 53.744C135.069 52.6773 134.664 51.504 134.365 50.224C133.938 48.3467 133.725 46.4053 133.725 44.4C133.725 36.6347 135.752 31.28 139.805 28.336C141.81 26.8427 144.05 25.7973 146.525 25.2C149 24.6027 151.922 24.304 155.293 24.304C166.088 24.304 171.485 28.0587 171.485 35.568C171.485 43.5467 165.426 47.536 153.309 47.536H151.197ZM151.069 38.192V42.416C152.306 42.416 153.309 41.9253 154.077 40.944C154.888 39.9627 155.293 38.768 155.293 37.36C155.293 34.8 154.632 33.52 153.309 33.52C151.816 33.52 151.069 35.0773 151.069 38.192ZM192.711 62.576C185.628 62.576 180.444 61.8933 177.159 60.528C175.495 59.8027 174.663 59.0987 174.663 58.416C174.663 56.6667 175.175 54.6187 176.199 52.272C177.223 49.9253 178.119 48.752 178.887 48.752C179.313 48.752 180.743 49.2213 183.175 50.16C185.649 51.0987 187.719 51.568 189.383 51.568C191.089 51.568 192.199 51.4613 192.711 51.248C193.265 51.0347 193.543 50.6293 193.543 50.032C193.543 49.392 193.116 48.9013 192.263 48.56C191.409 48.176 190.343 47.92 189.062 47.792C187.783 47.664 186.396 47.408 184.903 47.024C183.452 46.64 182.087 46.1493 180.807 45.552C179.527 44.9547 178.46 43.9733 177.607 42.608C176.753 41.2 176.327 39.7067 176.327 38.128C176.327 36.5067 176.369 35.312 176.455 34.544C176.54 33.7333 176.881 32.624 177.479 31.216C178.119 29.7653 178.993 28.592 180.103 27.696C181.255 26.8 183.004 25.9893 185.351 25.264C187.74 24.5387 190.407 24.176 193.351 24.176C196.295 24.176 198.748 24.2827 200.711 24.496C202.716 24.6667 204.273 24.9013 205.382 25.2C206.535 25.4987 207.473 25.84 208.199 26.224C209.436 26.864 210.055 27.568 210.055 28.336C210.055 30 209.457 31.92 208.263 34.096C207.068 36.272 206.108 37.36 205.382 37.36C204.7 37.36 203.185 36.9973 200.839 36.272C198.492 35.504 196.764 35.12 195.655 35.12C193.863 35.12 192.967 35.632 192.967 36.656C192.967 37.296 193.564 37.7867 194.759 38.128C195.996 38.4267 197.468 38.7467 199.175 39.088C200.881 39.4293 202.588 39.92 204.295 40.56C206.044 41.1573 207.516 42.2667 208.711 43.888C209.948 45.5093 210.567 47.5573 210.567 50.032C210.567 58.3947 204.615 62.576 192.711 62.576ZM232.028 28.912V60.464C232.028 60.9333 230.79 61.3173 228.316 61.616C225.884 61.872 223.366 62 220.764 62C218.204 62 216.54 61.8933 215.772 61.68C215.046 61.424 214.684 61.0187 214.684 60.464V30.064C214.684 29.1253 215.878 28.208 218.268 27.312C220.7 26.3733 223.345 25.904 226.204 25.904C230.086 25.904 232.028 26.9067 232.028 28.912ZM223.324 12.08C226.14 12.08 228.337 12.5067 229.916 13.36C231.537 14.1707 232.348 15.664 232.348 17.84C232.348 21.68 229.361 23.6 223.388 23.6C217.414 23.6 214.428 21.68 214.428 17.84C214.428 14 217.393 12.08 223.324 12.08ZM254.211 62.576C247.128 62.576 241.944 61.8933 238.659 60.528C236.995 59.8027 236.163 59.0987 236.163 58.416C236.163 56.6667 236.675 54.6187 237.699 52.272C238.723 49.9253 239.619 48.752 240.387 48.752C240.813 48.752 242.243 49.2213 244.675 50.16C247.149 51.0987 249.219 51.568 250.883 51.568C252.589 51.568 253.699 51.4613 254.211 51.248C254.765 51.0347 255.043 50.6293 255.043 50.032C255.043 49.392 254.616 48.9013 253.763 48.56C252.909 48.176 251.843 47.92 250.562 47.792C249.283 47.664 247.896 47.408 246.403 47.024C244.952 46.64 243.587 46.1493 242.307 45.552C241.027 44.9547 239.96 43.9733 239.107 42.608C238.253 41.2 237.827 39.7067 237.827 38.128C237.827 36.5067 237.869 35.312 237.955 34.544C238.04 33.7333 238.381 32.624 238.979 31.216C239.619 29.7653 240.493 28.592 241.603 27.696C242.755 26.8 244.504 25.9893 246.851 25.264C249.24 24.5387 251.907 24.176 254.851 24.176C257.795 24.176 260.248 24.2827 262.211 24.496C264.216 24.6667 265.773 24.9013 266.882 25.2C268.035 25.4987 268.973 25.84 269.699 26.224C270.936 26.864 271.555 27.568 271.555 28.336C271.555 30 270.957 31.92 269.763 34.096C268.568 36.272 267.608 37.36 266.882 37.36C266.2 37.36 264.685 36.9973 262.339 36.272C259.992 35.504 258.264 35.12 257.155 35.12C255.363 35.12 254.467 35.632 254.467 36.656C254.467 37.296 255.064 37.7867 256.259 38.128C257.496 38.4267 258.968 38.7467 260.675 39.088C262.381 39.4293 264.088 39.92 265.795 40.56C267.544 41.1573 269.016 42.2667 270.211 43.888C271.448 45.5093 272.067 47.5573 272.067 50.032C272.067 58.3947 266.115 62.576 254.211 62.576ZM308.479 60.144C308.479 60.6987 307.156 61.1467 304.51 61.488C301.908 61.8293 299.305 62 296.703 62C294.1 62 292.436 61.8507 291.711 61.552C290.985 61.2533 290.623 60.784 290.623 60.144V20.848C290.623 19.7813 291.839 18.8 294.271 17.904C296.745 17.008 299.54 16.56 302.655 16.56C303.764 16.56 304.596 16.6027 305.151 16.688C306.601 16.9013 307.625 17.8187 308.223 19.44L314.367 35.952H314.623V20.848C314.623 19.7813 315.839 18.8 318.271 17.904C320.703 17.008 323.476 16.56 326.591 16.56C329.279 16.56 330.985 17.072 331.711 18.096C332.223 18.8213 332.479 19.4827 332.479 20.08V60.144C332.479 60.6987 331.156 61.1467 328.511 61.488C325.908 61.8293 323.028 62 319.871 62C316.756 62 315.049 61.5947 314.751 60.784L308.799 45.04H308.479V60.144ZM355.479 60.144C355.479 60.784 354.092 61.2533 351.319 61.552C348.588 61.8507 345.985 62 343.51 62C341.036 62 339.436 61.8507 338.711 61.552C337.985 61.2533 337.623 60.784 337.623 60.144V19.568C337.623 18.4587 338.177 17.6693 339.286 17.2C340.396 16.7307 342.487 16.496 345.559 16.496H369.303C370.199 16.496 370.647 18.1173 370.647 21.36C370.647 24.56 370.433 27.0133 370.007 28.72C369.623 30.384 369.111 31.216 368.471 31.216L355.479 30.576V34.928C361.153 34.672 364.951 34.544 366.871 34.544C367.511 34.544 367.937 34.8853 368.151 35.568C368.407 36.2507 368.535 37.5733 368.535 39.536C368.535 41.456 368.321 43.312 367.895 45.104C367.468 46.8533 366.871 47.728 366.103 47.728L355.479 47.344V60.144ZM402.323 60.464C402.323 60.9333 401 61.3173 398.355 61.616C395.752 61.872 393.128 62 390.483 62C387.88 62 386.216 61.8933 385.491 61.68C384.808 61.424 384.467 61.0187 384.467 60.464V32.944H375.571C375.101 32.944 374.696 32.3467 374.355 31.152C374.013 29.9573 373.843 28.1867 373.843 25.84C373.843 23.4507 374.099 21.3173 374.611 19.44C375.123 17.52 375.805 16.56 376.659 16.56H411.283C411.923 16.56 412.349 17.1573 412.562 18.352C412.819 19.5467 412.947 21.2747 412.947 23.536C412.947 25.7973 412.712 27.9307 412.243 29.936C411.773 31.9413 411.133 32.944 410.323 32.944H402.323V60.464Z" fill="url(#paint0_linear_246_464)"/>
<path d="M17.416 62.064L18.8238 56.2315L17.416 62.064ZM13.512 60.208L9.93692 65.0266L10.0237 65.091L10.1128 65.1523L13.512 60.208ZM10.12 56.368L15.2772 53.3015L15.2758 53.2991L10.12 56.368ZM8.52 29.68L14.1794 31.6728L14.1794 31.6728L8.52 29.68ZM12.552 22.64L16.8494 26.8272L16.8759 26.8L16.902 26.7725L12.552 22.64ZM18.376 18.48L20.9357 23.9066L20.9357 23.9066L18.376 18.48ZM24.712 16.432L25.6147 22.3637L25.6775 22.3542L25.7401 22.3433L24.712 16.432ZM41.8 17.264L39.4365 22.7789L39.4844 22.7994L39.5326 22.8191L41.8 17.264ZM43.848 28.656L49.5613 30.4886L49.5662 30.4732L49.5711 30.4577L43.848 28.656ZM36.296 31.088L34.75 36.8854L34.7953 36.8975L34.8408 36.9089L36.296 31.088ZM26.312 46.32L21.0671 49.2339L21.0846 49.2655L21.1025 49.2968L26.312 46.32ZM29.512 48.816L28.719 54.7634L35.512 55.6691V48.816H29.512ZM43.4 39.152L41.7517 44.9211L41.7864 44.9311L41.8213 44.9406L43.4 39.152ZM45.32 40.24L40.4676 43.769L40.5245 43.8473L40.5839 43.9236L45.32 40.24ZM42.824 61.36L41.9285 55.4272L41.9201 55.4285L41.9117 55.4298L42.824 61.36ZM31.304 61.552L29.0757 67.1229L29.2394 67.1883L29.4066 67.2441L31.304 61.552ZM30.216 59.568L36.1969 59.0895L36.1877 58.9751L36.1742 58.8611L30.216 59.568ZM29.768 55.792L35.7262 55.0851L35.0982 49.792H29.768V55.792ZM29.256 55.792V49.792H24.1538L23.334 54.8279L29.256 55.792ZM26.952 60.528L22.5704 56.4291L22.5345 56.4674L22.4994 56.5063L26.952 60.528ZM21.448 62.512V56.512C20.407 56.512 19.5413 56.4047 18.8238 56.2315L17.416 62.064L16.0082 67.8965C17.7653 68.3206 19.5877 68.512 21.448 68.512V62.512ZM17.416 62.064L18.8238 56.2315C18.4779 56.148 17.8455 55.9061 16.9112 55.2637L13.512 60.208L10.1128 65.1523C11.9092 66.3872 13.8794 67.3827 16.0082 67.8965L17.416 62.064ZM13.512 60.208L17.0871 55.3894C16.4723 54.9333 15.8565 54.2759 15.2772 53.3015L10.12 56.368L4.96278 59.4345C6.26079 61.6175 7.9064 63.5201 9.93692 65.0266L13.512 60.208ZM10.12 56.368L15.2758 53.2991C13.9645 51.0962 12.92 46.9954 12.92 40.176H6.92H0.92C0.92 47.7779 2.00884 54.4718 4.96424 59.4369L10.12 56.368ZM6.92 40.176H12.92C12.92 36.7329 13.3841 33.9313 14.1794 31.6728L8.52 29.68L2.86059 27.6872C1.52253 31.4873 0.92 35.6831 0.92 40.176H6.92ZM8.52 29.68L14.1794 31.6728C15.0607 29.17 16.0219 27.6765 16.8494 26.8272L12.552 22.64L8.25462 18.4528C5.83947 20.9315 4.11268 24.1313 2.86059 27.6873L8.52 29.68ZM12.552 22.64L16.902 26.7725C17.9806 25.6371 19.3039 24.6763 20.9357 23.9066L18.376 18.48L15.8163 13.0534C12.9254 14.417 10.366 16.2296 8.202 18.5075L12.552 22.64ZM18.376 18.48L20.9357 23.9066C22.8015 23.0265 24.352 22.5558 25.6147 22.3637L24.712 16.432L23.8094 10.5003C21.1466 10.9055 18.4731 11.8002 15.8163 13.0534L18.376 18.48ZM24.712 16.432L25.7401 22.3433C27.3275 22.0672 29.0716 21.92 30.984 21.92V15.92V9.92C28.459 9.92 26.0219 10.1141 23.684 10.5207L24.712 16.432ZM30.984 15.92V21.92C36.058 21.92 38.5702 22.4076 39.4365 22.7789L41.8 17.264L44.1635 11.7491C40.8485 10.3284 36.15 9.92 30.984 9.92V15.92ZM41.8 17.264L39.5326 22.8191C39.5844 22.8402 39.527 22.824 39.4161 22.735C39.299 22.641 39.1739 22.507 39.0713 22.3437C38.8554 21.9999 38.936 21.857 38.936 22.256H44.936H50.936C50.936 20.1803 50.4939 17.9681 49.2327 15.9603C47.9462 13.9124 46.095 12.5365 44.0674 11.7089L41.8 17.264ZM44.936 22.256H38.936C38.936 23.4855 38.7073 25.0042 38.1249 26.8543L43.848 28.656L49.5711 30.4577C50.4393 27.6998 50.936 24.9518 50.936 22.256H44.936ZM43.848 28.656L38.1347 26.8234C37.9147 27.5093 37.8201 27.4214 38.1396 27.0827C38.3291 26.8818 38.6584 26.6017 39.1466 26.3786C39.6475 26.1498 40.1705 26.048 40.648 26.048V32.048V38.048C46.2485 38.048 48.664 33.286 49.5613 30.4886L43.848 28.656ZM40.648 32.048V26.048C40.9916 26.048 41.2313 26.0818 41.2375 26.0825C41.2879 26.0891 41.2947 26.0914 41.2387 26.0814C41.1279 26.0616 40.9227 26.0208 40.5965 25.9489C39.9517 25.8066 39.0116 25.5822 37.7512 25.2671L36.296 31.088L34.8408 36.9089C36.1404 37.2338 37.2056 37.4894 38.0115 37.6671C38.4107 37.7552 38.7921 37.8344 39.1293 37.8946C39.3111 37.927 39.9593 38.048 40.648 38.048V32.048ZM36.296 31.088L37.842 25.2906C35.1953 24.5848 32.6419 24.064 30.536 24.064V30.064V36.064C30.9901 36.064 32.2767 36.2259 34.75 36.8854L36.296 31.088ZM30.536 30.064V24.064C26.6357 24.064 23.2721 25.9095 21.2474 29.3232C19.5147 32.2447 19.032 35.8537 19.032 39.344H25.032H31.032C31.032 38.076 31.1275 37.1283 31.2621 36.4477C31.3984 35.7579 31.548 35.4795 31.5686 35.4448C31.5736 35.4363 31.5394 35.4957 31.4491 35.587C31.3558 35.6814 31.2273 35.7848 31.0676 35.8745C30.7217 36.069 30.4798 36.064 30.536 36.064V30.064ZM25.032 39.344H19.032C19.032 42.8003 19.4697 46.3586 21.0671 49.2339L26.312 46.32L31.5569 43.4061C31.4476 43.2094 31.032 42.117 31.032 39.344H25.032ZM26.312 46.32L21.1025 49.2968C22.551 51.8316 25.0067 54.2684 28.719 54.7634L29.512 48.816L30.305 42.8686C30.517 42.8969 30.7371 42.9558 30.9495 43.0465C31.1602 43.1366 31.325 43.2415 31.4422 43.333C31.667 43.5083 31.6616 43.5885 31.5215 43.3432L26.312 46.32ZM29.512 48.816H35.512V43.056H29.512H23.512V48.816H29.512ZM29.512 43.056H35.512C35.512 43.8548 35.2982 44.5533 35.0147 45.0869C34.7492 45.5866 34.4627 45.8707 34.3466 45.9754C34.1649 46.1393 34.2713 45.985 35.0605 45.6601L32.776 40.112L30.4915 34.5639C29.1047 35.135 27.5791 35.9193 26.3094 37.0646C24.9937 38.2513 23.512 40.2607 23.512 43.056H29.512ZM32.776 40.112L35.0605 45.6601C36.6356 45.0115 37.95 44.768 39.048 44.768V38.768V32.768C36.1353 32.768 33.2684 33.4205 30.4915 34.5639L32.776 40.112ZM39.048 38.768V44.768C39.935 44.768 40.614 44.7968 41.1126 44.8408C41.6447 44.8877 41.814 44.939 41.7517 44.9211L43.4 39.152L45.0483 33.3829C43.2917 32.881 41.1225 32.768 39.048 32.768V38.768ZM43.4 39.152L41.8213 44.9406C41.9537 44.9767 41.8539 44.9653 41.6259 44.8361C41.3937 44.7045 40.9162 44.3859 40.4676 43.769L45.32 40.24L50.1724 36.711C48.643 34.608 46.4188 33.7562 44.9787 33.3634L43.4 39.152ZM45.32 40.24L40.5839 43.9236C40.6643 44.027 40.5953 43.962 40.4951 43.7329C40.3922 43.4978 40.216 42.9949 40.216 42.288H46.216H52.216C52.216 39.7472 50.9972 37.7663 50.0561 36.5564L45.32 40.24ZM46.216 42.288H40.216V60.016H46.216H52.216V42.288H46.216ZM46.216 60.016H40.216C40.216 57.881 41.3665 56.5051 42.0231 55.9229C42.6245 55.3895 43.1376 55.1979 43.1578 55.1899C43.2371 55.1585 42.9291 55.2762 41.9285 55.4272L42.824 61.36L43.7195 67.2928C44.9802 67.1025 46.3682 66.8255 47.5782 66.3461C48.1638 66.1141 49.1008 65.6851 49.9849 64.9011C50.9242 64.0682 52.216 62.4283 52.216 60.016H46.216ZM42.824 61.36L41.9117 55.4298C40.0187 55.721 37.9996 55.872 35.848 55.872V61.872V67.872C38.5604 67.872 41.192 67.6817 43.7363 67.2902L42.824 61.36ZM35.848 61.872V55.872C34.7242 55.872 33.9029 55.8464 33.3415 55.8068C33.0618 55.7871 32.9 55.7676 32.8294 55.7571C32.7229 55.7413 32.8924 55.7569 33.2014 55.8599L31.304 61.552L29.4066 67.2441C30.5045 67.61 31.7047 67.7213 32.4985 67.7772C33.4517 67.8443 34.5824 67.872 35.848 67.872V61.872ZM31.304 61.552L33.5323 55.9811C34.6284 56.4196 35.3927 57.2128 35.8129 57.979C35.9998 58.3199 36.0934 58.6067 36.14 58.7862C36.1865 58.9655 36.1958 59.0753 36.1969 59.0895L30.216 59.568L24.2351 60.0465C24.3916 62.0025 25.2812 65.6051 29.0757 67.1229L31.304 61.552ZM30.216 59.568L36.1742 58.8611L35.7262 55.0851L29.768 55.792L23.8098 56.4989L24.2578 60.2749L30.216 59.568ZM29.768 55.792V49.792H29.256V55.792V61.792H29.768V55.792ZM29.256 55.792L23.334 54.8279C23.2212 55.5208 22.9723 55.9994 22.5704 56.4291L26.952 60.528L31.3336 64.6269C33.4064 62.4113 34.6935 59.7325 35.178 56.7561L29.256 55.792ZM26.952 60.528L22.4994 56.5063C22.6234 56.369 22.7249 56.3428 22.6454 56.3715C22.5294 56.4133 22.1698 56.512 21.448 56.512V62.512V68.512C24.9377 68.512 28.6838 67.5621 31.4046 64.5497L26.952 60.528ZM67.197 47.536V41.536H61.197V47.536H67.197ZM77.181 50.16L79.4751 55.7041L79.5157 55.6873L79.556 55.6699L77.181 50.16ZM84.285 52.208L79.0141 55.0746L79.0141 55.0746L84.285 52.208ZM81.149 61.36L82.6042 67.1809L81.149 61.36ZM62.909 61.872L61.5348 67.7125L61.5473 67.7155L61.5598 67.7183L62.909 61.872ZM57.533 59.952L54.4698 65.1111L54.5638 65.167L54.6599 65.2194L57.533 59.952ZM53.885 57.008L49.4005 60.9942L49.441 61.0397L49.4824 61.0844L53.885 57.008ZM51.581 53.744L46.1719 56.3404L46.1928 56.384L46.2144 56.4273L51.581 53.744ZM50.365 50.224L44.5142 51.5537L44.518 51.5706L44.522 51.5874L50.365 50.224ZM55.805 28.336L59.331 33.1906L59.3599 33.1696L59.3886 33.1483L55.805 28.336ZM62.525 25.2L61.1172 19.3675L62.525 25.2ZM67.069 42.416H61.069V48.416H67.069V42.416ZM70.077 40.944L65.4512 37.1227L65.4008 37.1838L65.352 37.2461L70.077 40.944ZM67.197 47.536H61.197C61.197 49.7786 61.727 52.5744 63.8474 54.7973C66.0182 57.0732 68.8433 57.696 71.165 57.696V51.696V45.696C70.8414 45.696 71.6824 45.6255 72.5306 46.5147C73.3283 47.351 73.197 48.0668 73.197 47.536H67.197ZM71.165 51.696V57.696C73.8675 57.696 76.7333 56.8386 79.4751 55.7041L77.181 50.16L74.8869 44.6159C72.6794 45.5294 71.5345 45.696 71.165 45.696V51.696ZM77.181 50.16L79.556 55.6699C80.7843 55.1405 81.6887 54.7576 82.2883 54.5118C82.5949 54.3862 82.7776 54.3146 82.8665 54.2814C82.9183 54.2621 82.8808 54.2774 82.7923 54.3054C82.7519 54.3182 82.6302 54.3562 82.4625 54.397C82.3774 54.4176 82.2328 54.4506 82.0496 54.481C81.8982 54.5061 81.5432 54.56 81.085 54.56V48.56V42.56C80.3059 42.56 79.6939 42.7205 79.632 42.7355C79.4299 42.7846 79.2648 42.8352 79.1718 42.8646C78.9779 42.9259 78.7984 42.9912 78.6715 43.0386C78.403 43.1387 78.0817 43.2671 77.7377 43.4082C77.036 43.6957 76.0524 44.1128 74.806 44.6501L77.181 50.16ZM81.085 48.56V54.56C79.7686 54.56 78.86 54.0706 78.4791 53.8239C78.0938 53.5743 77.9331 53.3724 77.9824 53.4286C78.0132 53.4636 78.1277 53.6031 78.3218 53.8994C78.5108 54.188 78.7419 54.5741 79.0141 55.0746L84.285 52.208L89.5559 49.3414C88.8094 47.9688 87.9647 46.6111 87.0036 45.5154C86.3356 44.7538 84.3093 42.56 81.085 42.56V48.56ZM84.285 52.208L79.0141 55.0746C79.5928 56.1387 79.9471 56.9195 80.1441 57.4533C80.2405 57.7146 80.2793 57.8632 80.2909 57.9151C80.3046 57.976 80.269 57.8501 80.269 57.584H86.269H92.269C92.269 55.9844 91.8383 54.4812 91.4019 53.2987C90.9376 52.0405 90.2999 50.7093 89.5559 49.3414L84.285 52.208ZM86.269 57.584H80.269C80.269 56.918 80.4544 56.2669 80.7677 55.7304C81.0561 55.2365 81.3582 54.9985 81.4277 54.9472C81.4932 54.8989 81.4182 54.9665 81.101 55.0974C80.7924 55.2247 80.3352 55.3788 79.6938 55.5391L81.149 61.36L82.6042 67.1809C84.6356 66.673 86.7849 65.9068 88.5503 64.6048C90.4721 63.1875 92.269 60.8338 92.269 57.584H86.269ZM81.149 61.36L79.6938 55.5391C76.7228 56.2819 73.8624 56.64 71.101 56.64V62.64V68.64C74.9103 68.64 78.7485 68.1448 82.6042 67.1809L81.149 61.36ZM71.101 62.64V56.64C68.138 56.64 65.8917 56.4026 64.2582 56.0257L62.909 61.872L61.5598 67.7183C64.3636 68.3654 67.5787 68.64 71.101 68.64V62.64ZM62.909 61.872L64.2832 56.0315C62.4415 55.5982 61.1981 55.1166 60.4061 54.6846L57.533 59.952L54.6599 65.2194C56.6839 66.3234 59.0245 67.1218 61.5348 67.7125L62.909 61.872ZM57.533 59.952L60.5962 54.7929C59.7214 54.2734 58.9577 53.6553 58.2876 52.9316L53.885 57.008L49.4824 61.0844C50.9457 62.6647 52.614 64.0092 54.4698 65.1111L57.533 59.952ZM53.885 57.008L58.3695 53.0218C57.5831 52.1371 57.1588 51.4831 56.9476 51.0607L51.581 53.744L46.2144 56.4273C47.0272 58.0529 48.1389 59.5749 49.4005 60.9942L53.885 57.008ZM51.581 53.744L56.9901 51.1476C56.6868 50.5156 56.4182 49.7613 56.208 48.8606L50.365 50.224L44.522 51.5874C44.9091 53.2467 45.4512 54.8391 46.1719 56.3404L51.581 53.744ZM50.365 50.224L56.2158 48.8943C55.8923 47.471 55.725 45.9765 55.725 44.4H49.725H43.725C43.725 46.8341 43.9843 49.2223 44.5142 51.5537L50.365 50.224ZM49.725 44.4H55.725C55.725 37.469 57.5404 34.4912 59.331 33.1906L55.805 28.336L52.279 23.4814C45.963 28.0688 43.725 35.8004 43.725 44.4H49.725ZM55.805 28.336L59.3886 33.1483C60.7329 32.1472 62.2301 31.4435 63.9328 31.0325L62.525 25.2L61.1172 19.3675C57.8705 20.1512 54.8878 21.5381 52.2214 23.5237L55.805 28.336ZM62.525 25.2L63.9328 31.0325C65.8256 30.5756 68.2536 30.304 71.293 30.304V24.304V18.304C67.591 18.304 64.1737 18.6297 61.1172 19.3675L62.525 25.2ZM71.293 24.304V30.304C76.1795 30.304 78.777 31.1873 80.0106 32.0454C80.8487 32.6285 81.485 33.4543 81.485 35.568H87.485H93.485C93.485 30.1724 91.4226 25.3662 86.8634 22.1946C82.6996 19.298 77.2012 18.304 71.293 18.304V24.304ZM87.485 35.568H81.485C81.485 37.7775 80.7952 38.773 79.6414 39.5328C78.0493 40.5811 74.8998 41.536 69.309 41.536V47.536V53.536C75.8355 53.536 81.774 52.4963 86.2406 49.5552C91.1455 46.3256 93.485 41.3372 93.485 35.568H87.485ZM69.309 47.536V41.536H67.197V47.536V53.536H69.309V47.536ZM67.069 38.192H61.069V42.416H67.069H73.069V38.192H67.069ZM67.069 42.416V48.416C70.1669 48.416 72.9063 47.0642 74.802 44.6418L70.077 40.944L65.352 37.2461C65.4614 37.1063 65.7077 36.8564 66.1117 36.6587C66.517 36.4603 66.8738 36.416 67.069 36.416V42.416ZM70.077 40.944L74.7028 44.7653C76.4974 42.5928 77.293 40.0048 77.293 37.36H71.293H65.293C65.293 37.4838 65.2762 37.4754 65.3071 37.3842C65.3217 37.3412 65.343 37.2918 65.3713 37.2411C65.3996 37.1904 65.4283 37.1505 65.4512 37.1227L70.077 40.944ZM71.293 37.36H77.293C77.293 35.7583 77.1187 33.6442 76.1276 31.7259C75.5868 30.6792 74.7331 29.5591 73.4298 28.7182C72.0983 27.8592 70.6501 27.52 69.309 27.52V33.52V39.52C68.6293 39.52 67.7597 39.3408 66.9242 38.8018C66.1169 38.2809 65.6766 37.6408 65.4664 37.2341C65.2705 36.855 65.2434 36.6251 65.2561 36.6983C65.2661 36.7564 65.293 36.9619 65.293 37.36H71.293ZM69.309 33.52V27.52C67.8327 27.52 66.2848 27.9257 64.904 28.8856C63.5734 29.8107 62.7369 31.0133 62.2187 32.094C61.2596 34.0944 61.069 36.3465 61.069 38.192H67.069H73.069C73.069 37.6374 73.1033 37.2856 73.1338 37.0949C73.1671 36.8868 73.1756 36.9976 73.0393 37.282C72.8945 37.584 72.5246 38.2027 71.754 38.7384C70.9333 39.309 70.0386 39.52 69.309 39.52V33.52ZM126.247 61.616L126.875 67.583L126.926 67.5776L126.978 67.5713L126.247 61.616ZM113.702 61.68L111.706 67.3379L111.899 67.4062L112.097 67.4611L113.702 61.68ZM112.359 36.336L106.492 37.5932L106.534 37.7904L106.589 37.9843L112.359 36.336ZM111.975 34.736L117.763 33.1573L117.695 32.9061L117.605 32.6618L111.975 34.736ZM104.935 61.616L105.574 67.5819L105.62 67.5769L105.666 67.5713L104.935 61.616ZM92.4545 61.68L90.5571 67.3721L90.7018 67.4203L90.8486 67.4611L92.4545 61.68ZM94.9505 26.224L92.9079 20.5824L92.892 20.5881L92.8763 20.5939L94.9505 26.224ZM107.367 27.248L113.245 26.0456L113.238 26.0128L113.231 25.98L107.367 27.248ZM107.943 30.064L102.064 31.2664L103.046 36.064H107.943V30.064ZM108.391 30.064V36.064H112.099L113.757 32.7473L108.391 30.064ZM114.79 24.88L113.012 19.1496L112.977 19.1606L112.941 19.172L114.79 24.88ZM127.59 28.208L122.386 31.194L122.415 31.2448L122.446 31.295L127.59 28.208ZM129.895 40.752H123.895V60.464H129.895H135.895V40.752H129.895ZM129.895 60.464H123.895C123.895 57.6937 125.728 56.2341 126.22 55.8887C126.548 55.6584 126.817 55.53 126.945 55.4731C127.083 55.4116 127.169 55.3846 127.176 55.3825C127.18 55.3811 127.054 55.4195 126.739 55.4784C126.438 55.5347 126.035 55.5969 125.515 55.6607L126.247 61.616L126.978 67.5713C128.291 67.41 129.643 67.1874 130.789 66.8255C131.323 66.657 132.225 66.3344 133.113 65.7113C133.909 65.1526 135.895 63.469 135.895 60.464H129.895ZM126.247 61.616L125.618 55.649C123.408 55.8817 121.101 56 118.695 56V62V68C121.494 68 124.221 67.8623 126.875 67.583L126.247 61.616ZM118.695 62V56C117.483 56 116.566 55.9743 115.91 55.9323C115.584 55.9114 115.363 55.8889 115.229 55.8713C115.072 55.8506 115.127 55.8486 115.308 55.8989L113.702 61.68L112.097 67.4611C113.114 67.7436 114.243 67.8501 115.143 67.9077C116.151 67.9723 117.346 68 118.695 68V62ZM113.702 61.68L115.699 56.0221C115.916 56.0987 116.646 56.3872 117.358 57.1832C118.182 58.1045 118.615 59.2974 118.615 60.464H112.615H106.615C106.615 62.1853 107.228 63.8582 108.415 65.1848C109.49 66.3861 110.763 67.0053 111.706 67.3379L113.702 61.68ZM112.615 60.464H118.615V40.112H112.615H106.615V60.464H112.615ZM112.615 40.112H118.615C118.615 38.3584 118.569 36.2341 118.128 34.6877L112.359 36.336L106.589 37.9843C106.526 37.7627 106.516 37.6504 106.527 37.7278C106.535 37.7847 106.549 37.9137 106.564 38.1338C106.594 38.5779 106.615 39.2255 106.615 40.112H112.615ZM112.359 36.336L118.225 35.0788C118.08 34.3995 117.926 33.7558 117.763 33.1573L111.975 34.736L106.186 36.3147C106.279 36.6548 106.381 37.0779 106.492 37.5932L112.359 36.336ZM111.975 34.736L117.605 32.6618C117.173 31.4902 116.387 30.1159 114.981 29.047C113.521 27.9375 111.869 27.52 110.374 27.52V33.52V39.52C109.648 39.52 108.647 39.3051 107.72 38.601C106.847 37.9374 106.477 37.1712 106.344 36.8102L111.975 34.736ZM110.374 33.52V27.52C108.906 27.52 106.693 27.8712 104.866 29.6329C102.998 31.4338 102.583 33.6905 102.583 35.248H108.583H114.583C114.583 35.6535 114.466 37.0462 113.195 38.2711C111.966 39.4568 110.649 39.52 110.374 39.52V33.52ZM108.583 35.248H102.583V60.464H108.583H114.583V35.248H108.583ZM108.583 60.464H102.583C102.583 57.6937 104.416 56.2341 104.908 55.8887C105.236 55.6584 105.505 55.53 105.633 55.4731C105.771 55.4116 105.857 55.3846 105.864 55.3825C105.868 55.3811 105.742 55.4195 105.427 55.4784C105.126 55.5347 104.723 55.5969 104.203 55.6607L104.935 61.616L105.666 67.5713C106.979 67.41 108.331 67.1874 109.477 66.8255C110.011 66.657 110.913 66.3344 111.801 65.7113C112.597 65.1526 114.583 63.469 114.583 60.464H108.583ZM104.935 61.616L104.295 55.6501C102.135 55.8816 99.8531 56 97.4465 56V62V68C100.245 68 102.955 67.8624 105.574 67.5819L104.935 61.616ZM97.4465 62V56C96.2347 56 95.3183 55.9743 94.6623 55.9323C94.3359 55.9114 94.1154 55.8889 93.9812 55.8713C93.8242 55.8506 93.8794 55.8486 94.0604 55.8989L92.4545 61.68L90.8486 67.4611C91.8656 67.7436 92.9953 67.8501 93.8947 67.9077C94.9027 67.9723 96.0983 68 97.4465 68V62ZM92.4545 61.68L94.3519 55.9879C94.5112 56.041 95.2233 56.2945 95.9462 57.0575C96.8022 57.9611 97.3025 59.1948 97.3025 60.464H91.3025H85.3025C85.3025 62.2879 85.9948 64.0016 87.2348 65.3105C88.3417 66.4789 89.6298 67.063 90.5571 67.3721L92.4545 61.68ZM91.3025 60.464H97.3025V28.912H91.3025H85.3025V60.464H91.3025ZM91.3025 28.912H97.3025C97.3025 30.1205 96.8752 31.0492 96.4954 31.609C96.1469 32.1225 95.8179 32.3658 95.7737 32.3983C95.7156 32.4411 96.018 32.2249 97.0247 31.8541L94.9505 26.224L92.8763 20.5939C91.451 21.119 89.9294 21.7989 88.6553 22.7377C87.5533 23.5497 85.3025 25.5564 85.3025 28.912H91.3025ZM94.9505 26.224L96.9931 31.8656C98.7884 31.2156 100.698 30.88 102.758 30.88V24.88V18.88C99.3578 18.88 96.0619 19.4404 92.9079 20.5824L94.9505 26.224ZM102.758 24.88V30.88C103.164 30.88 103.396 30.9103 103.491 30.9279C103.59 30.9461 103.465 30.9366 103.216 30.8086C102.948 30.671 102.552 30.4027 102.185 29.9395C101.81 29.4664 101.597 28.956 101.502 28.516L107.367 27.248L113.231 25.98C112.652 23.3012 110.939 21.2858 108.701 20.1354C106.731 19.1232 104.58 18.88 102.758 18.88V24.88ZM107.367 27.248L101.488 28.4504L102.064 31.2664L107.943 30.064L113.821 28.8616L113.245 26.0456L107.367 27.248ZM107.943 30.064V36.064H108.391V30.064V24.064H107.943V30.064ZM108.391 30.064L113.757 32.7473C114.165 31.9318 114.89 31.1548 116.64 30.588L114.79 24.88L112.941 19.172C108.633 20.5678 105.091 23.2469 103.024 27.3807L108.391 30.064ZM114.79 24.88L116.569 30.6104C117.15 30.43 117.906 30.304 118.887 30.304V24.304V18.304C116.88 18.304 114.905 18.562 113.012 19.1496L114.79 24.88ZM118.887 24.304V30.304C120.479 30.304 121.383 30.5501 121.839 30.7545C122.207 30.9196 122.309 31.0593 122.386 31.194L127.59 28.208L132.795 25.222C129.8 20.0019 124.307 18.304 118.887 18.304V24.304ZM127.59 28.208L122.446 31.295C123.105 32.3936 123.895 35.1851 123.895 40.752H129.895H135.895C135.895 34.7135 135.148 29.1424 132.735 25.121L127.59 28.208ZM151.197 47.536V41.536H145.197V47.536H151.197ZM161.181 50.16L163.475 55.7041L163.516 55.6873L163.556 55.6699L161.181 50.16ZM168.285 52.208L163.014 55.0746V55.0746L168.285 52.208ZM165.149 61.36L166.604 67.1809L165.149 61.36ZM146.909 61.872L145.535 67.7125L145.547 67.7155L145.56 67.7183L146.909 61.872ZM141.533 59.952L138.47 65.1111L138.564 65.167L138.66 65.2194L141.533 59.952ZM137.885 57.008L133.401 60.9942L133.441 61.0397L133.482 61.0844L137.885 57.008ZM135.581 53.744L130.172 56.3404L130.193 56.384L130.214 56.4273L135.581 53.744ZM134.365 50.224L128.514 51.5537L128.518 51.5706L128.522 51.5874L134.365 50.224ZM139.805 28.336L143.331 33.1906L143.36 33.1696L143.389 33.1483L139.805 28.336ZM146.525 25.2L145.117 19.3675L146.525 25.2ZM151.069 42.416H145.069V48.416H151.069V42.416ZM154.077 40.944L149.451 37.1227L149.401 37.1838L149.352 37.2461L154.077 40.944ZM151.197 47.536H145.197C145.197 49.7786 145.727 52.5744 147.847 54.7973C150.018 57.0732 152.843 57.696 155.165 57.696V51.696V45.696C154.841 45.696 155.682 45.6255 156.531 46.5147C157.328 47.351 157.197 48.0668 157.197 47.536H151.197ZM155.165 51.696V57.696C157.867 57.696 160.733 56.8386 163.475 55.7041L161.181 50.16L158.887 44.6159C156.679 45.5294 155.535 45.696 155.165 45.696V51.696ZM161.181 50.16L163.556 55.6699C164.784 55.1405 165.689 54.7576 166.288 54.5118C166.595 54.3862 166.778 54.3146 166.867 54.2814C166.918 54.2621 166.881 54.2774 166.792 54.3054C166.752 54.3182 166.63 54.3562 166.462 54.397C166.377 54.4176 166.233 54.4506 166.05 54.481C165.898 54.5061 165.543 54.56 165.085 54.56V48.56V42.56C164.306 42.56 163.694 42.7205 163.632 42.7355C163.43 42.7846 163.265 42.8352 163.172 42.8646C162.978 42.9259 162.798 42.9912 162.671 43.0386C162.403 43.1387 162.082 43.2671 161.738 43.4082C161.036 43.6957 160.052 44.1128 158.806 44.6501L161.181 50.16ZM165.085 48.56V54.56C163.769 54.56 162.86 54.0706 162.479 53.8239C162.094 53.5743 161.933 53.3724 161.982 53.4286C162.013 53.4636 162.128 53.6031 162.322 53.8994C162.511 54.188 162.742 54.5741 163.014 55.0746L168.285 52.208L173.556 49.3414C172.809 47.9688 171.965 46.6111 171.004 45.5154C170.336 44.7538 168.309 42.56 165.085 42.56V48.56ZM168.285 52.208L163.014 55.0746C163.593 56.1387 163.947 56.9195 164.144 57.4533C164.24 57.7146 164.279 57.8632 164.291 57.9151C164.305 57.976 164.269 57.8501 164.269 57.584H170.269H176.269C176.269 55.9844 175.838 54.4812 175.402 53.2987C174.938 52.0405 174.3 50.7093 173.556 49.3414L168.285 52.208ZM170.269 57.584H164.269C164.269 56.918 164.454 56.2669 164.768 55.7304C165.056 55.2365 165.358 54.9985 165.428 54.9472C165.493 54.8989 165.418 54.9665 165.101 55.0974C164.792 55.2247 164.335 55.3788 163.694 55.5391L165.149 61.36L166.604 67.1809C168.636 66.673 170.785 65.9068 172.55 64.6048C174.472 63.1875 176.269 60.8338 176.269 57.584H170.269ZM165.149 61.36L163.694 55.5391C160.723 56.2819 157.862 56.64 155.101 56.64V62.64V68.64C158.91 68.64 162.748 68.1448 166.604 67.1809L165.149 61.36ZM155.101 62.64V56.64C152.138 56.64 149.892 56.4026 148.258 56.0257L146.909 61.872L145.56 67.7183C148.364 68.3654 151.579 68.64 155.101 68.64V62.64ZM146.909 61.872L148.283 56.0315C146.442 55.5982 145.198 55.1166 144.406 54.6846L141.533 59.952L138.66 65.2194C140.684 66.3234 143.024 67.1218 145.535 67.7125L146.909 61.872ZM141.533 59.952L144.596 54.7929C143.721 54.2734 142.958 53.6553 142.288 52.9316L137.885 57.008L133.482 61.0844C134.946 62.6647 136.614 64.0092 138.47 65.1111L141.533 59.952ZM137.885 57.008L142.369 53.0218C141.583 52.1371 141.159 51.4831 140.948 51.0607L135.581 53.744L130.214 56.4273C131.027 58.0529 132.139 59.5749 133.401 60.9942L137.885 57.008ZM135.581 53.744L140.99 51.1476C140.687 50.5156 140.418 49.7613 140.208 48.8606L134.365 50.224L128.522 51.5874C128.909 53.2467 129.451 54.8391 130.172 56.3404L135.581 53.744ZM134.365 50.224L140.216 48.8943C139.892 47.471 139.725 45.9765 139.725 44.4H133.725H127.725C127.725 46.8341 127.984 49.2223 128.514 51.5537L134.365 50.224ZM133.725 44.4H139.725C139.725 37.469 141.54 34.4912 143.331 33.1906L139.805 28.336L136.279 23.4814C129.963 28.0688 127.725 35.8004 127.725 44.4H133.725ZM139.805 28.336L143.389 33.1483C144.733 32.1472 146.23 31.4435 147.933 31.0325L146.525 25.2L145.117 19.3675C141.871 20.1512 138.888 21.5381 136.221 23.5237L139.805 28.336ZM146.525 25.2L147.933 31.0325C149.826 30.5756 152.254 30.304 155.293 30.304V24.304V18.304C151.591 18.304 148.174 18.6297 145.117 19.3675L146.525 25.2ZM155.293 24.304V30.304C160.18 30.304 162.777 31.1873 164.011 32.0454C164.849 32.6285 165.485 33.4543 165.485 35.568H171.485H177.485C177.485 30.1724 175.423 25.3662 170.863 22.1946C166.7 19.298 161.201 18.304 155.293 18.304V24.304ZM171.485 35.568H165.485C165.485 37.7775 164.795 38.773 163.641 39.5328C162.049 40.5811 158.9 41.536 153.309 41.536V47.536V53.536C159.836 53.536 165.774 52.4963 170.241 49.5552C175.145 46.3256 177.485 41.3372 177.485 35.568H171.485ZM153.309 47.536V41.536H151.197V47.536V53.536H153.309V47.536ZM151.069 38.192H145.069V42.416H151.069H157.069V38.192H151.069ZM151.069 42.416V48.416C154.167 48.416 156.906 47.0642 158.802 44.6418L154.077 40.944L149.352 37.2461C149.461 37.1063 149.708 36.8564 150.112 36.6587C150.517 36.4603 150.874 36.416 151.069 36.416V42.416ZM154.077 40.944L158.703 44.7653C160.497 42.5928 161.293 40.0048 161.293 37.36H155.293H149.293C149.293 37.4838 149.276 37.4754 149.307 37.3842C149.322 37.3412 149.343 37.2918 149.371 37.2411C149.4 37.1904 149.428 37.1505 149.451 37.1227L154.077 40.944ZM155.293 37.36H161.293C161.293 35.7583 161.119 33.6442 160.128 31.7259C159.587 30.6792 158.733 29.5591 157.43 28.7182C156.098 27.8592 154.65 27.52 153.309 27.52V33.52V39.52C152.629 39.52 151.76 39.3408 150.924 38.8018C150.117 38.2809 149.677 37.6408 149.466 37.2341C149.271 36.855 149.243 36.6251 149.256 36.6983C149.266 36.7564 149.293 36.9619 149.293 37.36H155.293ZM153.309 33.52V27.52C151.833 27.52 150.285 27.9257 148.904 28.8856C147.573 29.8107 146.737 31.0133 146.219 32.094C145.26 34.0944 145.069 36.3465 145.069 38.192H151.069H157.069C157.069 37.6374 157.103 37.2856 157.134 37.0949C157.167 36.8868 157.176 36.9976 157.039 37.282C156.894 37.584 156.525 38.2027 155.754 38.7384C154.933 39.309 154.039 39.52 153.309 39.52V33.52ZM177.158 60.528L174.761 66.0282L174.808 66.0488L174.856 66.0686L177.158 60.528ZM176.199 52.272L170.699 49.8723L176.199 52.272ZM183.174 50.16L181.014 55.7575L181.03 55.7638L181.047 55.77L183.174 50.16ZM192.71 51.248L190.557 45.6479L190.479 45.6777L190.403 45.7095L192.71 51.248ZM192.262 48.56L189.8 54.0315L189.916 54.0837L190.034 54.1309L192.262 48.56ZM189.062 47.792L189.66 41.8218H189.66L189.062 47.792ZM184.902 47.024L183.367 52.8242L183.388 52.8297L183.408 52.835L184.902 47.024ZM180.807 45.552L178.269 50.9891L178.269 50.9891L180.807 45.552ZM177.607 42.608L172.475 45.7178L172.497 45.7531L172.519 45.788L177.607 42.608ZM176.454 34.544L182.418 35.2066L182.42 35.1894L182.422 35.1721L176.454 34.544ZM177.479 31.216L171.989 28.7942L171.972 28.8333L171.955 28.8727L177.479 31.216ZM180.102 27.696L176.419 22.9599L176.375 22.9937L176.332 23.0283L180.102 27.696ZM185.35 25.264L183.608 19.5227L183.593 19.5271L183.579 19.5316L185.35 25.264ZM200.71 24.496L200.062 30.4609L200.132 30.4684L200.202 30.4744L200.71 24.496ZM205.383 25.2L203.823 30.9937L203.85 31.001L203.877 31.008L205.383 25.2ZM208.199 26.224L205.391 31.5267L205.417 31.5401L205.442 31.5533L208.199 26.224ZM200.839 36.272L198.972 41.9744L199.019 41.9898L199.067 42.0044L200.839 36.272ZM194.758 38.128L193.11 43.8971L193.23 43.9313L193.351 43.9605L194.758 38.128ZM199.174 39.088L197.998 44.9715V44.9715L199.174 39.088ZM204.294 40.56L202.188 46.178L202.271 46.2093L202.356 46.2381L204.294 40.56ZM208.711 43.888L203.88 47.4472L203.91 47.4879L203.941 47.528L208.711 43.888ZM192.71 62.576V56.576C185.791 56.576 181.602 55.8771 179.461 54.9874L177.158 60.528L174.856 66.0686C179.286 67.9095 185.465 68.576 192.71 68.576V62.576ZM177.158 60.528L179.556 55.0278C178.954 54.7653 178.935 54.6836 179.162 54.8757C179.299 54.9911 180.663 56.1651 180.663 58.416H174.663H168.663C168.663 61.3495 170.443 63.2169 171.411 64.0363C172.47 64.9324 173.699 65.5653 174.761 66.0282L177.158 60.528ZM174.663 58.416H180.663C180.663 57.783 180.864 56.583 181.698 54.6717L176.199 52.272L170.699 49.8723C169.485 52.6543 168.663 55.5503 168.663 58.416H174.663ZM176.199 52.272L181.698 54.6717C181.902 54.2045 182.073 53.8554 182.21 53.6051C182.351 53.3455 182.421 53.2553 182.407 53.2735C182.397 53.287 182.346 53.353 182.25 53.4505C182.156 53.5463 181.989 53.7027 181.744 53.8755C181.266 54.2128 180.279 54.752 178.887 54.752V48.752V42.752C175.472 42.752 173.487 45.183 172.87 45.9905C171.992 47.1403 171.285 48.5292 170.699 49.8723L176.199 52.272ZM178.887 48.752V54.752C178.454 54.752 178.145 54.6991 178.069 54.686C177.959 54.6668 177.903 54.6516 177.924 54.6569C177.967 54.6679 178.116 54.7092 178.407 54.8046C178.979 54.9925 179.835 55.3026 181.014 55.7575L183.174 50.16L185.335 44.5625C184.082 44.0787 183.007 43.6848 182.15 43.4035C181.726 43.2642 181.286 43.1294 180.865 43.0231C180.597 42.9551 179.8 42.752 178.887 42.752V48.752ZM183.174 50.16L181.047 55.77C183.847 56.8324 186.691 57.568 189.383 57.568V51.568V45.568C188.746 45.568 187.451 45.365 185.302 44.55L183.174 50.16ZM189.383 51.568V57.568C190.338 57.568 191.251 57.539 192.069 57.4605C192.745 57.3954 193.896 57.2542 195.018 56.7865L192.71 51.248L190.403 45.7095C190.605 45.6255 190.765 45.5757 190.861 45.5486C190.96 45.5207 191.027 45.5066 191.053 45.5016C191.098 45.4926 191.063 45.5018 190.92 45.5155C190.628 45.5436 190.133 45.568 189.383 45.568V51.568ZM192.71 51.248L194.864 56.8481C196.035 56.3979 197.328 55.5734 198.286 54.1721C199.244 52.7731 199.542 51.2749 199.542 50.032H193.542H187.542C187.542 49.3865 187.703 48.3895 188.383 47.3959C189.064 46.3999 189.941 45.8848 190.557 45.6479L192.71 51.248ZM193.542 50.032H199.542C199.542 45.8799 196.447 43.7715 194.491 42.9891L192.262 48.56L190.034 54.1309C189.919 54.0847 189.312 53.8304 188.695 53.1211C187.975 52.2937 187.542 51.1842 187.542 50.032H193.542ZM192.262 48.56L194.725 43.0885C193.106 42.3599 191.36 41.9919 189.66 41.8218L189.062 47.792L188.465 53.7622C189.325 53.8481 189.713 53.9921 189.8 54.0315L192.262 48.56ZM189.062 47.792L189.66 41.8218C188.735 41.7293 187.651 41.5357 186.397 41.213L184.902 47.024L183.408 52.835C185.14 53.2803 186.83 53.5987 188.465 53.7622L189.062 47.792ZM184.902 47.024L186.438 41.2238C185.31 40.9252 184.282 40.5527 183.344 40.1149L180.807 45.552L178.269 50.9891C179.891 51.746 181.594 52.3548 183.367 52.8242L184.902 47.024ZM180.807 45.552L183.344 40.1149C183.256 40.0738 183.022 39.9517 182.694 39.428L177.607 42.608L172.519 45.788C173.898 47.995 175.797 49.8356 178.269 50.9891L180.807 45.552ZM177.607 42.608L182.738 39.4982C182.427 38.9858 182.327 38.5619 182.327 38.128H176.327H170.327C170.327 40.8514 171.079 43.4142 172.475 45.7178L177.607 42.608ZM176.327 38.128H182.327C182.327 36.5429 182.371 35.626 182.418 35.2066L176.454 34.544L170.491 33.8814C170.367 34.998 170.327 36.4704 170.327 38.128H176.327ZM176.454 34.544L182.422 35.1721C182.411 35.2761 182.409 35.1946 182.509 34.8685C182.604 34.5605 182.76 34.1297 183.002 33.5593L177.479 31.216L171.955 28.8727C171.291 30.4375 170.668 32.2049 170.487 33.9159L176.454 34.544ZM177.479 31.216L182.968 33.6378C183.266 32.9627 183.587 32.5941 183.873 32.3636L180.102 27.696L176.332 23.0283C174.399 24.5899 172.971 26.5679 171.989 28.7942L177.479 31.216ZM180.102 27.696L183.786 32.4321C184.106 32.1833 185.061 31.6335 187.122 30.9964L185.35 25.264L183.579 19.5316C180.947 20.3452 178.403 21.4167 176.419 22.9599L180.102 27.696ZM185.35 25.264L187.093 31.0053C188.827 30.479 190.894 30.176 193.35 30.176V24.176V18.176C189.919 18.176 186.652 18.5984 183.608 19.5227L185.35 25.264ZM193.35 24.176V30.176C196.172 30.176 198.392 30.2793 200.062 30.4609L200.71 24.496L201.359 18.5311C199.104 18.2861 196.417 18.176 193.35 18.176V24.176ZM200.71 24.496L200.202 30.4744C202.074 30.6337 203.221 30.8317 203.823 30.9937L205.383 25.2L206.942 19.4063C205.326 18.971 203.358 18.6996 201.219 18.5176L200.71 24.496ZM205.383 25.2L203.877 31.008C204.76 31.2369 205.218 31.4349 205.391 31.5267L208.199 26.224L211.006 20.9213C209.729 20.2451 208.309 19.7604 206.888 19.392L205.383 25.2ZM208.199 26.224L205.442 31.5533C205.689 31.6813 205.446 31.6051 205.084 31.1927C204.652 30.7016 204.055 29.7135 204.055 28.336H210.055H216.055C216.055 23.9344 212.536 21.7122 210.955 20.8947L208.199 26.224ZM210.055 28.336H204.055C204.055 28.6142 203.933 29.5153 203.003 31.2084L208.262 34.096L213.522 36.9836C214.982 34.3247 216.055 31.3858 216.055 28.336H210.055ZM208.262 34.096L203.003 31.2084C202.763 31.6457 202.563 31.9767 202.403 32.2185C202.324 32.3377 202.262 32.426 202.215 32.488C202.168 32.5508 202.145 32.5766 202.147 32.5743C202.148 32.5732 202.189 32.5269 202.271 32.453C202.35 32.3809 202.498 32.2559 202.716 32.1152C203.117 31.8562 204.047 31.36 205.383 31.36V37.36V43.36C208.556 43.36 210.534 41.207 211.146 40.5137C212.053 39.4857 212.839 38.2272 213.522 36.9836L208.262 34.096ZM205.383 37.36V31.36C205.678 31.36 205.818 31.3929 205.692 31.3721C205.601 31.3571 205.421 31.3223 205.132 31.2529C204.55 31.1138 203.722 30.8831 202.61 30.5396L200.839 36.272L199.067 42.0044C200.302 42.3863 201.404 42.6996 202.337 42.9231C203.121 43.1107 204.272 43.36 205.383 43.36V37.36ZM200.839 36.272L202.705 30.5696C200.31 29.7858 197.795 29.12 195.654 29.12V35.12V41.12C195.592 41.12 195.824 41.1191 196.481 41.2651C197.097 41.4019 197.918 41.6294 198.972 41.9744L200.839 36.272ZM195.654 35.12V29.12C194.384 29.12 192.46 29.2671 190.662 30.2945C188.362 31.6085 186.967 33.9701 186.967 36.656H192.967H198.967C198.967 37.2988 198.817 38.15 198.317 39.0072C197.818 39.8621 197.157 40.4038 196.615 40.7135C195.713 41.2289 195.133 41.12 195.654 41.12V35.12ZM192.967 36.656H186.967C186.967 39.1464 188.238 41.0168 189.606 42.1404C190.809 43.1285 192.146 43.6218 193.11 43.8971L194.758 38.128L196.407 32.3589C196.176 32.2929 196.617 32.3701 197.223 32.8676C197.564 33.1475 198.017 33.6112 198.384 34.3053C198.766 35.0286 198.967 35.8401 198.967 36.656H192.967ZM194.758 38.128L193.351 43.9605C194.687 44.283 196.24 44.6199 197.998 44.9715L199.174 39.088L200.351 33.2045C198.696 32.8735 197.305 32.5704 196.166 32.2955L194.758 38.128ZM199.174 39.088L197.998 44.9715C199.373 45.2466 200.769 45.646 202.188 46.178L204.294 40.56L206.401 34.942C204.406 34.194 202.389 33.6121 200.351 33.2045L199.174 39.088ZM204.294 40.56L202.356 46.2381C202.844 46.4047 203.343 46.7179 203.88 47.4472L208.711 43.888L213.541 40.3288C211.689 37.8154 209.244 35.9099 206.233 34.8819L204.294 40.56ZM208.711 43.888L203.941 47.528C204.221 47.8956 204.566 48.5845 204.566 50.032H210.566H216.566C216.566 46.5302 215.674 43.123 213.48 40.248L208.711 43.888ZM210.566 50.032H204.566C204.566 52.5963 203.773 53.744 202.653 54.5304C201.147 55.5886 198.144 56.576 192.71 56.576V62.576V68.576C199.181 68.576 205.106 67.4727 209.552 64.3496C214.384 60.9547 216.566 55.8304 216.566 50.032H210.566ZM228.316 61.616L228.944 67.583L228.989 67.5782L229.034 67.5728L228.316 61.616ZM215.771 61.68L213.775 67.3379L213.968 67.4062L214.166 67.4611L215.771 61.68ZM218.268 27.312L220.374 32.93L220.401 32.9199L220.428 32.9095L218.268 27.312ZM229.915 13.36L227.062 18.6382L227.147 18.6838L227.232 18.7266L229.915 13.36ZM232.027 28.912H226.027V60.464H232.027H238.027V28.912H232.027ZM232.027 60.464H226.027C226.027 57.6453 227.919 56.1847 228.389 55.8607C228.715 55.6357 228.981 55.5115 229.104 55.4576C229.238 55.399 229.319 55.3742 229.321 55.3736C229.327 55.3717 229.293 55.3825 229.208 55.4024C229.124 55.422 229.008 55.4467 228.854 55.475C228.543 55.5322 228.129 55.595 227.597 55.6592L228.316 61.616L229.034 67.5728C230.367 67.412 231.729 67.191 232.878 66.8344C233.412 66.6686 234.314 66.3519 235.202 65.7393C235.981 65.2019 238.027 63.5174 238.027 60.464H232.027ZM228.316 61.616L227.687 55.649C225.477 55.8817 223.17 56 220.764 56V62V68C223.563 68 226.29 67.8623 228.944 67.583L228.316 61.616ZM220.764 62V56C219.552 56 218.635 55.9743 217.979 55.9323C217.653 55.9114 217.432 55.8889 217.298 55.8713C217.141 55.8506 217.196 55.8486 217.377 55.8989L215.771 61.68L214.166 67.4611C215.183 67.7436 216.312 67.8501 217.212 67.9077C218.22 67.9723 219.415 68 220.764 68V62ZM215.771 61.68L217.768 56.0221C217.985 56.0987 218.715 56.3872 219.427 57.1832C220.251 58.1045 220.684 59.2974 220.684 60.464H214.684H208.684C208.684 62.1853 209.297 63.8582 210.484 65.1848C211.559 66.3861 212.832 67.0053 213.775 67.3379L215.771 61.68ZM214.684 60.464H220.684V30.064H214.684H208.684V60.464H214.684ZM214.684 30.064H220.684C220.684 31.171 220.315 32.0482 219.953 32.6115C219.62 33.1283 219.296 33.3828 219.234 33.4309C219.146 33.4983 219.407 33.2928 220.374 32.93L218.268 27.312L216.161 21.694C214.739 22.2272 213.208 22.9284 211.925 23.9131C210.746 24.8184 208.684 26.8333 208.684 30.064H214.684ZM218.268 27.312L220.428 32.9095C222.107 32.2615 224.012 31.904 226.204 31.904V25.904V19.904C222.677 19.904 219.292 20.4852 216.107 21.7145L218.268 27.312ZM226.204 25.904V31.904C226.932 31.904 227.427 31.9523 227.734 32.005C228.055 32.0603 228.032 32.0973 227.818 31.987C227.577 31.8624 227.061 31.5289 226.622 30.8496C226.166 30.142 226.027 29.4215 226.027 28.912H232.027H238.027C238.027 27.3999 237.647 25.802 236.705 24.3424C235.781 22.9111 234.537 21.951 233.325 21.325C231.076 20.1636 228.466 19.904 226.204 19.904V25.904ZM223.324 12.08V18.08C225.656 18.08 226.721 18.4539 227.062 18.6382L229.915 13.36L232.769 8.08176C229.952 6.55944 226.623 6.08 223.324 6.08V12.08ZM229.915 13.36L227.232 18.7266C227.153 18.6867 227.011 18.6018 226.853 18.4517C226.692 18.2991 226.561 18.1241 226.466 17.9505C226.279 17.6059 226.348 17.4782 226.348 17.84H232.348H238.348C238.348 16.0258 238.01 14.0634 237.013 12.2254C235.981 10.3248 234.431 8.90969 232.599 7.99343L229.915 13.36ZM232.348 17.84H226.348C226.348 18.0147 226.317 17.8751 226.461 17.5981C226.615 17.3012 226.814 17.1447 226.863 17.1129C226.872 17.1072 226.659 17.2427 226.05 17.3732C225.446 17.5027 224.578 17.6 223.387 17.6V23.6V29.6C226.825 29.6 230.435 29.0825 233.352 27.2071C236.723 25.0398 238.348 21.6029 238.348 17.84H232.348ZM223.387 23.6V17.6C222.197 17.6 221.329 17.5027 220.725 17.3732C220.116 17.2427 219.903 17.1072 219.912 17.1129C219.961 17.1447 220.16 17.3012 220.314 17.5981C220.458 17.8751 220.428 18.0147 220.428 17.84H214.428H208.428C208.428 21.6029 210.052 25.0398 213.423 27.2071C216.34 29.0825 219.95 29.6 223.387 29.6V23.6ZM214.428 17.84H220.428C220.428 17.659 220.459 17.7928 220.318 18.0663C220.167 18.3607 219.968 18.5202 219.913 18.5564C219.897 18.5665 220.1 18.4338 220.697 18.305C221.29 18.177 222.146 18.08 223.324 18.08V12.08V6.08C219.903 6.08 216.301 6.59893 213.39 8.48355C210.03 10.6592 208.428 14.0961 208.428 17.84H214.428ZM238.658 60.528L236.261 66.0282L236.308 66.0488L236.356 66.0686L238.658 60.528ZM237.699 52.272L232.199 49.8723L237.699 52.272ZM244.674 50.16L242.514 55.7575L242.53 55.7638L242.547 55.77L244.674 50.16ZM254.21 51.248L252.057 45.6479L251.979 45.6777L251.903 45.7095L254.21 51.248ZM253.762 48.56L251.3 54.0315L251.416 54.0837L251.534 54.1309L253.762 48.56ZM250.562 47.792L251.16 41.8218H251.16L250.562 47.792ZM246.402 47.024L244.867 52.8242L244.888 52.8297L244.908 52.835L246.402 47.024ZM242.307 45.552L239.769 50.9891L239.769 50.9891L242.307 45.552ZM239.107 42.608L233.975 45.7178L233.997 45.7531L234.019 45.788L239.107 42.608ZM237.954 34.544L243.918 35.2066L243.92 35.1894L243.922 35.1721L237.954 34.544ZM238.979 31.216L233.489 28.7942L233.472 28.8333L233.455 28.8727L238.979 31.216ZM241.602 27.696L237.919 22.9599L237.875 22.9937L237.832 23.0283L241.602 27.696ZM246.85 25.264L245.108 19.5227L245.093 19.5271L245.079 19.5316L246.85 25.264ZM262.211 24.496L261.562 30.4609L261.632 30.4684L261.702 30.4744L262.211 24.496ZM266.883 25.2L265.323 30.9937L265.35 31.001L265.377 31.008L266.883 25.2ZM269.698 26.224L266.891 31.5267L266.917 31.5401L266.942 31.5533L269.698 26.224ZM262.339 36.272L260.472 41.9744L260.519 41.9898L260.567 42.0044L262.339 36.272ZM256.258 38.128L254.61 43.8971L254.73 43.9313L254.851 43.9605L256.258 38.128ZM260.674 39.088L259.498 44.9715V44.9715L260.674 39.088ZM265.794 40.56L263.688 46.178L263.771 46.2093L263.856 46.2381L265.794 40.56ZM270.211 43.888L265.38 47.4472L265.41 47.4879L265.441 47.528L270.211 43.888ZM254.21 62.576V56.576C247.291 56.576 243.102 55.8771 240.961 54.9874L238.658 60.528L236.356 66.0686C240.786 67.9095 246.965 68.576 254.21 68.576V62.576ZM238.658 60.528L241.056 55.0278C240.454 54.7653 240.435 54.6836 240.662 54.8757C240.799 54.9911 242.163 56.1651 242.163 58.416H236.163H230.163C230.163 61.3495 231.943 63.2169 232.911 64.0363C233.97 64.9324 235.199 65.5653 236.261 66.0282L238.658 60.528ZM236.163 58.416H242.163C242.163 57.783 242.364 56.583 243.198 54.6717L237.699 52.272L232.199 49.8723C230.985 52.6543 230.163 55.5503 230.163 58.416H236.163ZM237.699 52.272L243.198 54.6717C243.402 54.2045 243.573 53.8554 243.71 53.6051C243.851 53.3455 243.921 53.2553 243.907 53.2735C243.897 53.287 243.846 53.353 243.75 53.4505C243.656 53.5463 243.489 53.7027 243.244 53.8755C242.766 54.2128 241.779 54.752 240.387 54.752V48.752V42.752C236.972 42.752 234.987 45.183 234.37 45.9905C233.492 47.1403 232.785 48.5292 232.199 49.8723L237.699 52.272ZM240.387 48.752V54.752C239.954 54.752 239.645 54.6991 239.569 54.686C239.459 54.6668 239.403 54.6516 239.424 54.6569C239.467 54.6679 239.616 54.7092 239.907 54.8046C240.479 54.9925 241.335 55.3026 242.514 55.7575L244.674 50.16L246.835 44.5625C245.582 44.0787 244.507 43.6848 243.65 43.4035C243.226 43.2642 242.786 43.1294 242.365 43.0231C242.097 42.9551 241.3 42.752 240.387 42.752V48.752ZM244.674 50.16L242.547 55.77C245.347 56.8324 248.191 57.568 250.883 57.568V51.568V45.568C250.246 45.568 248.951 45.365 246.802 44.55L244.674 50.16ZM250.883 51.568V57.568C251.838 57.568 252.751 57.539 253.569 57.4605C254.245 57.3954 255.396 57.2542 256.518 56.7865L254.21 51.248L251.903 45.7095C252.105 45.6255 252.265 45.5757 252.361 45.5486C252.46 45.5207 252.527 45.5066 252.553 45.5016C252.598 45.4926 252.563 45.5018 252.42 45.5155C252.128 45.5436 251.633 45.568 250.883 45.568V51.568ZM254.21 51.248L256.364 56.8481C257.535 56.3979 258.828 55.5734 259.786 54.1721C260.744 52.7731 261.043 51.2749 261.043 50.032H255.042H249.042C249.042 49.3865 249.203 48.3895 249.883 47.3959C250.564 46.3999 251.441 45.8848 252.057 45.6479L254.21 51.248ZM255.042 50.032H261.043C261.043 45.8799 257.947 43.7715 255.991 42.9891L253.762 48.56L251.534 54.1309C251.419 54.0847 250.812 53.8304 250.195 53.1211C249.475 52.2937 249.042 51.1842 249.042 50.032H255.042ZM253.762 48.56L256.225 43.0885C254.606 42.3599 252.86 41.9919 251.16 41.8218L250.562 47.792L249.965 53.7622C250.825 53.8481 251.213 53.9921 251.3 54.0315L253.762 48.56ZM250.562 47.792L251.16 41.8218C250.235 41.7293 249.151 41.5357 247.897 41.213L246.402 47.024L244.908 52.835C246.64 53.2803 248.33 53.5987 249.965 53.7622L250.562 47.792ZM246.402 47.024L247.938 41.2238C246.81 40.9252 245.782 40.5527 244.844 40.1149L242.307 45.552L239.769 50.9891C241.391 51.746 243.094 52.3548 244.867 52.8242L246.402 47.024ZM242.307 45.552L244.844 40.1149C244.756 40.0738 244.522 39.9517 244.194 39.428L239.107 42.608L234.019 45.788C235.398 47.995 237.297 49.8356 239.769 50.9891L242.307 45.552ZM239.107 42.608L244.238 39.4982C243.927 38.9858 243.827 38.5619 243.827 38.128H237.827H231.827C231.827 40.8514 232.579 43.4142 233.975 45.7178L239.107 42.608ZM237.827 38.128H243.827C243.827 36.5429 243.871 35.626 243.918 35.2066L237.954 34.544L231.991 33.8814C231.867 34.998 231.827 36.4704 231.827 38.128H237.827ZM237.954 34.544L243.922 35.1721C243.911 35.2761 243.909 35.1946 244.009 34.8685C244.104 34.5605 244.26 34.1297 244.502 33.5593L238.979 31.216L233.455 28.8727C232.791 30.4375 232.168 32.2049 231.987 33.9159L237.954 34.544ZM238.979 31.216L244.468 33.6378C244.766 32.9627 245.087 32.5941 245.373 32.3636L241.602 27.696L237.832 23.0283C235.899 24.5899 234.471 26.5679 233.489 28.7942L238.979 31.216ZM241.602 27.696L245.286 32.4321C245.606 32.1833 246.561 31.6335 248.622 30.9964L246.85 25.264L245.079 19.5316C242.447 20.3452 239.903 21.4167 237.919 22.9599L241.602 27.696ZM246.85 25.264L248.593 31.0053C250.327 30.479 252.394 30.176 254.85 30.176V24.176V18.176C251.419 18.176 248.152 18.5984 245.108 19.5227L246.85 25.264ZM254.85 24.176V30.176C257.672 30.176 259.892 30.2793 261.562 30.4609L262.211 24.496L262.859 18.5311C260.604 18.2861 257.917 18.176 254.85 18.176V24.176ZM262.211 24.496L261.702 30.4744C263.574 30.6337 264.721 30.8317 265.323 30.9937L266.883 25.2L268.442 19.4063C266.826 18.971 264.858 18.6996 262.719 18.5176L262.211 24.496ZM266.883 25.2L265.377 31.008C266.26 31.2369 266.718 31.4349 266.891 31.5267L269.698 26.224L272.506 20.9213C271.229 20.2451 269.809 19.7604 268.388 19.392L266.883 25.2ZM269.698 26.224L266.942 31.5533C267.189 31.6813 266.946 31.6051 266.583 31.1927C266.152 30.7016 265.555 29.7135 265.555 28.336H271.555H277.555C277.555 23.9344 274.036 21.7122 272.455 20.8947L269.698 26.224ZM271.555 28.336H265.555C265.555 28.6142 265.433 29.5153 264.503 31.2084L269.763 34.096L275.022 36.9836C276.482 34.3247 277.555 31.3858 277.555 28.336H271.555ZM269.763 34.096L264.503 31.2084C264.263 31.6457 264.063 31.9767 263.903 32.2185C263.824 32.3377 263.762 32.426 263.715 32.488C263.668 32.5508 263.645 32.5766 263.647 32.5743C263.648 32.5732 263.689 32.5269 263.771 32.453C263.85 32.3809 263.998 32.2559 264.216 32.1152C264.617 31.8562 265.547 31.36 266.883 31.36V37.36V43.36C270.056 43.36 272.034 41.207 272.646 40.5137C273.553 39.4857 274.339 38.2272 275.022 36.9836L269.763 34.096ZM266.883 37.36V31.36C267.178 31.36 267.318 31.3929 267.192 31.3721C267.101 31.3571 266.921 31.3223 266.632 31.2529C266.05 31.1138 265.222 30.8831 264.11 30.5396L262.339 36.272L260.567 42.0044C261.802 42.3863 262.904 42.6996 263.837 42.9231C264.621 43.1107 265.772 43.36 266.883 43.36V37.36ZM262.339 36.272L264.205 30.5696C261.81 29.7858 259.295 29.12 257.154 29.12V35.12V41.12C257.092 41.12 257.324 41.1191 257.981 41.2651C258.597 41.4019 259.418 41.6294 260.472 41.9744L262.339 36.272ZM257.154 35.12V29.12C255.884 29.12 253.96 29.2671 252.162 30.2945C249.862 31.6085 248.467 33.9701 248.467 36.656H254.467H260.467C260.467 37.2988 260.317 38.15 259.817 39.0072C259.318 39.8621 258.657 40.4038 258.115 40.7135C257.213 41.2289 256.633 41.12 257.154 41.12V35.12ZM254.467 36.656H248.467C248.467 39.1464 249.738 41.0168 251.106 42.1404C252.309 43.1285 253.646 43.6218 254.61 43.8971L256.258 38.128L257.907 32.3589C257.676 32.2929 258.117 32.3701 258.723 32.8676C259.064 33.1475 259.517 33.6112 259.884 34.3053C260.266 35.0286 260.467 35.8401 260.467 36.656H254.467ZM256.258 38.128L254.851 43.9605C256.187 44.283 257.74 44.6199 259.498 44.9715L260.674 39.088L261.851 33.2045C260.196 32.8735 258.805 32.5704 257.666 32.2955L256.258 38.128ZM260.674 39.088L259.498 44.9715C260.873 45.2466 262.269 45.646 263.688 46.178L265.794 40.56L267.901 34.942C265.906 34.194 263.889 33.6121 261.851 33.2045L260.674 39.088ZM265.794 40.56L263.856 46.2381C264.344 46.4047 264.843 46.7179 265.38 47.4472L270.211 43.888L275.041 40.3288C273.189 37.8154 270.744 35.9099 267.733 34.8819L265.794 40.56ZM270.211 43.888L265.441 47.528C265.721 47.8956 266.066 48.5845 266.066 50.032H272.066H278.066C278.066 46.5302 277.174 43.123 274.98 40.248L270.211 43.888ZM272.066 50.032H266.066C266.066 52.5963 265.273 53.744 264.153 54.5304C262.647 55.5886 259.644 56.576 254.21 56.576V62.576V68.576C260.681 68.576 266.606 67.4727 271.052 64.3496C275.884 60.9547 278.066 55.8304 278.066 50.032H272.066ZM304.51 61.488L303.743 55.5373L303.73 55.5389L304.51 61.488ZM291.711 61.552L293.995 56.0039L291.711 61.552ZM294.271 17.904L292.228 12.2624L292.212 12.2681L292.196 12.2739L294.271 17.904ZM305.151 16.688L304.238 22.6182L304.258 22.6213L304.278 22.6242L305.151 16.688ZM308.223 19.44L302.592 21.5142L302.596 21.5233L302.599 21.5324L308.223 19.44ZM314.367 35.952L308.743 38.0444L310.197 41.952H314.367V35.952ZM314.622 35.952V41.952H320.622V35.952H314.622ZM318.271 17.904L320.345 23.5341V23.5341L318.271 17.904ZM331.711 18.096L336.612 14.6359L336.607 14.6279L331.711 18.096ZM328.51 61.488L327.743 55.5373L327.73 55.5389L328.51 61.488ZM314.75 60.784L320.381 58.7098L320.372 58.686L320.363 58.6623L314.75 60.784ZM308.798 45.04L314.411 42.9183L312.945 39.04H308.798V45.04ZM308.479 45.04V39.04H302.479V45.04H308.479ZM308.479 60.144H302.479C302.479 57.6142 304.044 56.1847 304.606 55.7586C304.931 55.5124 305.2 55.3735 305.331 55.3107C305.471 55.2435 305.557 55.2146 305.562 55.2131C305.57 55.2103 305.535 55.2222 305.447 55.2448C305.36 55.267 305.238 55.295 305.076 55.3273C304.748 55.3926 304.309 55.4643 303.743 55.5373L304.51 61.488L305.278 67.4387C306.708 67.2542 308.174 66.9978 309.411 66.5789C309.996 66.3808 310.943 66.0132 311.855 65.3214C312.748 64.6447 314.479 62.9512 314.479 60.144H308.479ZM304.51 61.488L303.73 55.5389C301.384 55.8466 299.042 56 296.703 56V62V68C299.568 68 302.432 67.812 305.291 67.4371L304.51 61.488ZM296.703 62V56C295.493 56 294.623 55.9645 294.039 55.912C293.749 55.886 293.592 55.8611 293.536 55.8508C293.447 55.834 293.649 55.8615 293.995 56.0039L291.711 61.552L289.426 67.1001C290.682 67.6172 292.053 67.7821 292.966 67.864C294.046 67.9609 295.309 68 296.703 68V62ZM291.711 61.552L293.995 56.0039C294.3 56.1296 295.006 56.4845 295.642 57.3073C296.339 58.2084 296.622 59.248 296.622 60.144H290.622H284.622C284.622 61.68 285.088 63.2742 286.147 64.6447C287.145 65.9368 288.396 66.6758 289.426 67.1001L291.711 61.552ZM290.622 60.144H296.622V20.848H290.622H284.622V60.144H290.622ZM290.622 20.848H296.622C296.622 21.7813 296.342 22.5669 296.01 23.1272C295.703 23.6433 295.39 23.9105 295.303 23.9812C295.209 24.0571 295.221 24.0294 295.42 23.927C295.611 23.8289 295.91 23.6944 296.345 23.5341L294.271 17.904L292.196 12.2739C290.715 12.8196 289.108 13.5601 287.766 14.6428C286.425 15.7254 284.622 17.7797 284.622 20.848H290.622ZM294.271 17.904L296.313 23.5456C298.025 22.9258 300.112 22.56 302.655 22.56V16.56V10.56C298.968 10.56 295.465 11.0902 292.228 12.2624L294.271 17.904ZM302.655 16.56V22.56C303.138 22.56 303.517 22.5694 303.803 22.5841C303.945 22.5914 304.053 22.5994 304.131 22.6066C304.211 22.614 304.244 22.6191 304.238 22.6182L305.151 16.688L306.063 10.7578C305.04 10.6004 303.835 10.56 302.655 10.56V16.56ZM305.151 16.688L304.278 22.6242C303.919 22.5715 303.427 22.3851 303.003 22.005C302.622 21.6635 302.547 21.3915 302.592 21.5142L308.223 19.44L313.853 17.3658C312.659 14.1249 310.076 11.3478 306.023 10.7518L305.151 16.688ZM308.223 19.44L302.599 21.5324L308.743 38.0444L314.367 35.952L319.99 33.8596L313.846 17.3476L308.223 19.44ZM314.367 35.952V41.952H314.622V35.952V29.952H314.367V35.952ZM314.622 35.952H320.622V20.848H314.622H308.622V35.952H314.622ZM314.622 20.848H320.622C320.622 21.7813 320.342 22.5669 320.01 23.1272C319.703 23.6433 319.39 23.9105 319.303 23.9812C319.209 24.0571 319.221 24.0294 319.42 23.927C319.611 23.8289 319.91 23.6944 320.345 23.5341L318.271 17.904L316.196 12.2739C314.715 12.8196 313.108 13.5601 311.766 14.6428C310.425 15.7254 308.622 17.7797 308.622 20.848H314.622ZM318.271 17.904L320.345 23.5341C321.994 22.9266 324.045 22.56 326.591 22.56V16.56V10.56C322.907 10.56 319.411 11.0894 316.196 12.2739L318.271 17.904ZM326.591 16.56V22.56C327.078 22.56 327.452 22.5835 327.728 22.6157C328.008 22.6483 328.141 22.6846 328.162 22.691C328.259 22.7199 327.492 22.5202 326.814 21.5641L331.711 18.096L336.607 14.6279C335.204 12.6478 333.221 11.6801 331.611 11.197C329.991 10.7111 328.254 10.56 326.591 10.56V16.56ZM331.711 18.096L326.809 21.5561C326.849 21.6133 326.778 21.5273 326.691 21.302C326.601 21.0683 326.479 20.6466 326.479 20.08H332.479H338.479C338.479 17.7743 337.51 15.9071 336.612 14.6359L331.711 18.096ZM332.479 20.08H326.479V60.144H332.479H338.479V20.08H332.479ZM332.479 60.144H326.479C326.479 57.6142 328.044 56.1847 328.606 55.7586C328.931 55.5124 329.2 55.3735 329.331 55.3107C329.471 55.2435 329.557 55.2146 329.562 55.2131C329.57 55.2103 329.535 55.2222 329.447 55.2448C329.36 55.267 329.238 55.295 329.076 55.3273C328.748 55.3926 328.309 55.4643 327.743 55.5373L328.51 61.488L329.278 67.4387C330.708 67.2542 332.174 66.9978 333.411 66.5789C333.996 66.3808 334.943 66.0132 335.855 65.3214C336.748 64.6447 338.479 62.9512 338.479 60.144H332.479ZM328.51 61.488L327.73 55.5389C325.432 55.8404 322.817 56 319.871 56V62V68C323.238 68 326.384 67.8183 329.291 67.4371L328.51 61.488ZM319.871 62V56C318.48 56 317.819 55.9008 317.641 55.8584C317.552 55.8373 317.871 55.8953 318.35 56.1855C318.848 56.4876 319.842 57.249 320.381 58.7098L314.75 60.784L309.12 62.8582C309.808 64.7244 311.128 65.8404 312.127 66.4465C313.107 67.0407 314.104 67.3521 314.868 67.5336C316.396 67.8965 318.147 68 319.871 68V62ZM314.75 60.784L320.363 58.6623L314.411 42.9183L308.798 45.04L303.186 47.1617L309.138 62.9057L314.75 60.784ZM308.798 45.04V39.04H308.479V45.04V51.04H308.798V45.04ZM308.479 45.04H302.479V60.144H308.479H314.479V45.04H308.479ZM351.319 61.552L350.676 55.5865L350.666 55.5876L351.319 61.552ZM338.711 61.552L340.995 56.0039L338.711 61.552ZM339.286 17.2L336.949 11.6742L336.949 11.6742L339.286 17.2ZM370.007 28.72L364.186 27.2648L364.172 27.3177L364.16 27.3708L370.007 28.72ZM368.47 31.216L368.175 37.2087L368.323 37.216H368.47V31.216ZM355.479 30.576L355.774 24.5833L349.479 24.2732V30.576H355.479ZM355.479 34.928H349.479V41.2048L355.749 40.9219L355.479 34.928ZM368.151 35.568L362.424 37.3576L362.474 37.5177L362.533 37.6747L368.151 35.568ZM367.895 45.104L373.724 46.5257L373.728 46.5097L373.731 46.4937L367.895 45.104ZM366.103 47.728L365.886 53.7241L365.994 53.728H366.103V47.728ZM355.479 47.344L355.695 41.3479L349.479 41.1232V47.344H355.479ZM355.479 60.144H349.479C349.479 57.8471 350.803 56.4408 351.47 55.9068C351.808 55.6366 352.094 55.4823 352.243 55.409C352.4 55.3317 352.501 55.2974 352.515 55.2927C352.531 55.2872 352.399 55.3311 352.049 55.3957C351.715 55.4574 351.264 55.5232 350.676 55.5865L351.319 61.552L351.961 67.5175C353.467 67.3553 355.033 67.1092 356.362 66.6593C356.999 66.4439 358.008 66.044 358.967 65.2772C359.981 64.4659 361.479 62.7609 361.479 60.144H355.479ZM351.319 61.552L350.666 55.5876C348.129 55.8651 345.745 56 343.51 56V62V68C346.225 68 349.047 67.8363 351.971 67.5164L351.319 61.552ZM343.51 62V56C342.372 56 341.556 55.9647 341.012 55.914C340.743 55.8888 340.6 55.8652 340.554 55.8563C340.479 55.842 340.669 55.8699 340.995 56.0039L338.711 61.552L336.426 67.1001C337.659 67.6077 338.989 67.7773 339.897 67.862C340.953 67.9606 342.175 68 343.51 68V62ZM338.711 61.552L340.995 56.0039C341.3 56.1296 342.006 56.4845 342.642 57.3073C343.339 58.2084 343.622 59.248 343.622 60.144H337.622H331.622C331.622 61.68 332.088 63.2742 333.147 64.6447C334.145 65.9368 335.396 66.6758 336.426 67.1001L338.711 61.552ZM337.622 60.144H343.622V19.568H337.622H331.622V60.144H337.622ZM337.622 19.568H343.622C343.622 20.0567 343.483 20.832 342.948 21.5937C342.436 22.3217 341.848 22.6311 341.624 22.7258L339.286 17.2L336.949 11.6742C335.615 12.2383 334.196 13.1769 333.129 14.6943C332.039 16.2453 331.622 17.97 331.622 19.568H337.622ZM339.286 17.2L341.624 22.7258C341.393 22.8237 341.525 22.7278 342.356 22.6346C343.103 22.5506 344.154 22.496 345.559 22.496V16.496V10.496C342.56 10.496 339.316 10.6724 336.949 11.6742L339.286 17.2ZM345.559 16.496V22.496H369.302V16.496V10.496H345.559V16.496ZM369.302 16.496V22.496C368.471 22.496 367.629 22.2984 366.862 21.9018C366.12 21.5183 365.604 21.0306 365.271 20.6291C364.946 20.2373 364.764 19.8903 364.672 19.6898C364.577 19.4839 364.537 19.3444 364.527 19.31C364.513 19.2571 364.551 19.3851 364.588 19.7823C364.623 20.1594 364.647 20.6776 364.647 21.36H370.647H376.647C376.647 19.6002 376.539 17.7263 376.094 16.114C375.876 15.3243 375.447 14.1013 374.51 12.9709C373.424 11.6609 371.634 10.496 369.302 10.496V16.496ZM370.647 21.36H364.647C364.647 24.3994 364.434 26.273 364.186 27.2648L370.007 28.72L375.827 30.1752C376.433 27.7537 376.647 24.7206 376.647 21.36H370.647ZM370.007 28.72L364.16 27.3708C364.022 27.9683 363.976 27.8518 364.225 27.4474C364.447 27.0853 365.757 25.216 368.47 25.216V31.216V37.216C371.824 37.216 373.71 34.9307 374.444 33.7366C375.205 32.5002 375.607 31.1357 375.853 30.0692L370.007 28.72ZM368.47 31.216L368.766 25.2233L355.774 24.5833L355.479 30.576L355.183 36.5687L368.175 37.2087L368.47 31.216ZM355.479 30.576H349.479V34.928H355.479H361.479V30.576H355.479ZM355.479 34.928L355.749 40.9219C361.445 40.6649 365.108 40.544 366.871 40.544V34.544V28.544C364.793 28.544 360.862 28.679 355.208 28.9341L355.479 34.928ZM366.871 34.544V40.544C366.072 40.544 364.949 40.3064 363.922 39.4852C362.953 38.7101 362.565 37.809 362.424 37.3576L368.151 35.568L373.877 33.7784C373.523 32.6444 372.814 31.2313 371.419 30.1148C369.966 28.9523 368.309 28.544 366.871 28.544V34.544ZM368.151 35.568L362.533 37.6747C362.441 37.43 362.418 37.29 362.426 37.3284C362.43 37.3522 362.447 37.4522 362.466 37.6499C362.505 38.0522 362.534 38.666 362.534 39.536H368.534H374.534C374.534 37.6812 374.459 35.3038 373.768 33.4613L368.151 35.568ZM368.534 39.536H362.534C362.534 41.0078 362.371 42.3964 362.058 43.7143L367.895 45.104L373.731 46.4937C374.271 44.2276 374.534 41.9042 374.534 39.536H368.534ZM367.895 45.104L362.065 43.6823C361.921 44.2761 361.875 44.1224 362.172 43.6882C362.344 43.4354 362.728 42.9487 363.41 42.5118C364.149 42.0384 365.082 41.728 366.103 41.728V47.728V53.728C369.167 53.728 371.126 51.8539 372.081 50.4558C372.975 49.1469 373.442 47.6812 373.724 46.5257L367.895 45.104ZM366.103 47.728L366.319 41.7319L355.695 41.3479L355.479 47.344L355.262 53.3401L365.886 53.7241L366.103 47.728ZM355.479 47.344H349.479V60.144H355.479H361.479V47.344H355.479ZM398.354 61.616L398.942 67.5872L398.985 67.583L399.028 67.5781L398.354 61.616ZM385.491 61.68L383.384 67.298L383.588 67.3746L383.798 67.4362L385.491 61.68ZM384.466 32.944H390.466V26.944H384.466V32.944ZM374.354 31.152L368.585 32.8003V32.8003L374.354 31.152ZM374.611 19.44L380.399 21.0187L380.404 21.0024L380.408 20.986L374.611 19.44ZM412.562 18.352L406.656 19.4067L406.674 19.5083L406.696 19.6092L412.562 18.352ZM412.242 29.936L406.4 28.5687V28.5687L412.242 29.936ZM402.323 32.944V26.944H396.323V32.944H402.323ZM402.323 60.464H396.323C396.323 59.014 396.859 57.8506 397.433 57.0729C397.961 56.3573 398.527 55.9485 398.822 55.7582C399.379 55.3986 399.781 55.3061 399.658 55.3419C399.499 55.388 398.916 55.5144 397.681 55.6539L398.354 61.616L399.028 67.5781C400.438 67.4189 401.839 67.204 403.003 66.8661C403.541 66.7099 404.439 66.4147 405.327 65.8418C406.029 65.3892 408.323 63.7065 408.323 60.464H402.323ZM398.354 61.616L397.767 55.6448C395.362 55.8814 392.934 56 390.483 56V62V68C393.322 68 396.142 67.8626 398.942 67.5872L398.354 61.616ZM390.483 62V56C389.247 56 388.321 55.9742 387.666 55.9323C387.34 55.9114 387.128 55.8893 387.007 55.8731C386.856 55.8529 386.952 55.8556 387.184 55.9238L385.491 61.68L383.798 67.4362C384.849 67.7455 386.023 67.8516 386.899 67.9077C387.908 67.9724 389.115 68 390.483 68V62ZM385.491 61.68L387.597 56.062C387.874 56.166 388.616 56.493 389.312 57.3192C390.097 58.2519 390.466 59.3988 390.466 60.464H384.466H378.466C378.466 62.0838 379.006 63.7107 380.133 65.0488C381.17 66.2803 382.424 66.938 383.384 67.298L385.491 61.68ZM384.466 60.464H390.466V32.944H384.466H378.466V60.464H384.466ZM384.466 32.944V26.944H375.57V32.944V38.944H384.466V32.944ZM375.57 32.944V26.944C378.229 26.944 379.593 28.7049 379.879 29.127C380.202 29.6024 380.226 29.8628 380.124 29.5037L374.354 31.152L368.585 32.8003C368.824 33.6358 369.222 34.7922 369.95 35.865C370.641 36.8845 372.443 38.944 375.57 38.944V32.944ZM374.354 31.152L380.124 29.5037C380.016 29.128 379.842 28.0304 379.842 25.84H373.842H367.842C367.842 28.343 368.01 30.7867 368.585 32.8003L374.354 31.152ZM373.842 25.84H379.842C379.842 23.8678 380.055 22.2803 380.399 21.0187L374.611 19.44L368.822 17.8613C368.142 20.3543 367.842 23.0336 367.842 25.84H373.842ZM374.611 19.44L380.408 20.986C380.588 20.31 380.66 20.3862 380.396 20.7571C380.24 20.9768 379.878 21.4235 379.23 21.828C378.53 22.2658 377.64 22.56 376.659 22.56V16.56V10.56C373.609 10.56 371.621 12.3911 370.617 13.8029C369.67 15.1338 369.145 16.65 368.813 17.894L374.611 19.44ZM376.659 16.56V22.56H411.283V16.56V10.56H376.659V16.56ZM411.283 16.56V22.56C410.466 22.56 409.596 22.3579 408.791 21.907C408.014 21.4719 407.505 20.9228 407.2 20.4954C406.664 19.7449 406.616 19.1838 406.656 19.4067L412.562 18.352L418.469 17.2973C418.296 16.3256 417.928 14.8684 416.965 13.5206C415.816 11.9117 413.846 10.56 411.283 10.56V16.56ZM412.562 18.352L406.696 19.6092C406.818 20.1791 406.947 21.4051 406.947 23.536H412.947H418.947C418.947 21.1442 418.819 18.9142 418.429 17.0948L412.562 18.352ZM412.947 23.536H406.947C406.947 25.3815 406.755 27.0529 406.4 28.5687L412.242 29.936L418.085 31.3033C418.669 28.8085 418.947 26.2132 418.947 23.536H412.947ZM412.242 29.936L406.4 28.5687C406.224 29.3204 406.135 29.3046 406.353 28.9638C406.481 28.7627 406.825 28.2775 407.487 27.8202C408.216 27.3163 409.199 26.944 410.323 26.944V32.944V38.944C413.629 38.944 415.601 36.7793 416.468 35.4202C417.326 34.0767 417.791 32.557 418.085 31.3033L412.242 29.936ZM410.323 32.944V26.944H402.323V32.944V38.944H410.323V32.944ZM402.323 32.944H396.323V60.464H402.323H408.323V32.944H402.323Z" fill="white" mask="url(#path-1-outside-1_246_464)"/>
<defs>
<linearGradient id="paint0_linear_246_464" x1="19.2196" y1="4.71544e-05" x2="454.121" y2="100.994" gradientUnits="userSpaceOnUse">
<stop stop-color="#2C70DA"/>
<stop offset="0.432065" stop-color="#5494D2"/>
<stop offset="1" stop-color="#712DC1"/>
</linearGradient>
</defs>
</svg>
